{"glyphs":{"0":{"ha":803,"x_min":36,"x_max":767,"o":"m 542 15 q 511 -4 542 15 q 401 -22 479 -22 q 260 15 324 -22 q 156 108 197 51 q 88 239 115 165 q 48 384 60 313 q 36 524 36 456 q 56 701 36 611 q 117 876 76 790 q 231 1015 157 961 q 401 1069 306 1069 q 572 1015 497 1069 q 686 876 646 961 q 747 701 726 790 q 767 524 767 611 q 755 384 767 456 q 715 239 743 313 q 647 108 688 165 q 542 15 606 51 m 517 912 q 493 935 517 912 q 401 958 468 958 q 285 912 335 958 q 210 794 236 865 q 173 655 185 724 q 161 525 161 586 q 173 396 161 464 q 210 257 185 328 q 285 140 236 186 q 401 94 335 94 q 517 140 468 94 q 592 257 567 186 q 630 396 618 328 q 642 525 642 464 q 630 655 642 586 q 592 794 618 724 q 517 912 567 865 z "},"1":{"ha":803,"x_min":171,"x_max":478,"o":"m 353 928 l 171 928 l 243 1047 l 478 1047 l 478 0 l 353 0 l 353 928 z "},"2":{"ha":803,"x_min":63,"x_max":739,"o":"m 317 119 l 739 119 l 739 0 l 63 0 l 521 563 q 614 750 614 676 q 552 891 614 832 q 408 950 490 950 q 271 894 329 950 q 207 758 213 838 l 76 758 q 180 985 92 900 q 408 1069 268 1069 q 642 980 544 1069 q 739 756 739 890 q 661 540 739 636 l 317 119 z "},"3":{"ha":803,"x_min":74,"x_max":728,"o":"m 382 500 l 382 608 q 588 776 588 608 q 536 906 588 856 q 406 956 485 956 q 289 915 335 956 q 232 806 243 874 l 103 806 q 201 1002 121 935 q 410 1069 281 1069 q 626 992 539 1069 q 713 788 713 915 q 579 551 713 626 q 728 292 728 481 q 633 63 728 149 q 393 -22 538 -22 q 172 56 265 -22 q 74 258 79 133 l 200 258 q 267 138 210 183 q 403 92 325 92 q 546 151 489 92 q 603 297 603 211 q 541 451 603 396 q 382 500 479 507 z "},"4":{"ha":803,"x_min":10,"x_max":771,"o":"m 651 267 l 771 267 l 771 153 l 651 153 l 651 0 l 526 0 l 526 153 l 10 153 l 651 1092 l 651 267 m 526 267 l 526 699 l 524 699 l 229 267 l 526 267 z "},"5":{"ha":803,"x_min":42,"x_max":749,"o":"m 733 928 l 404 928 l 339 713 l 413 717 q 654 608 560 717 q 749 350 749 500 q 637 82 749 186 q 361 -22 525 -22 q 174 27 263 -22 q 42 161 86 76 l 139 253 q 231 142 163 188 q 371 97 300 97 q 550 173 476 97 q 624 354 624 249 q 549 529 624 456 q 374 603 475 603 q 265 578 318 603 q 178 510 211 553 l 153 510 l 314 1047 l 733 1047 l 733 928 z "},"6":{"ha":803,"x_min":56,"x_max":750,"o":"m 526 1069 l 621 1006 l 342 628 l 344 625 q 447 650 394 650 q 662 551 574 650 q 750 322 750 451 q 649 78 750 179 q 404 -22 547 -22 q 161 77 267 -22 q 56 313 56 176 q 169 589 56 436 l 526 1069 m 403 94 q 558 158 492 94 q 625 308 625 222 q 557 468 625 403 q 403 533 489 533 q 249 467 317 533 q 181 315 181 400 q 247 160 181 225 q 403 94 313 94 z "},"7":{"ha":803,"x_min":65,"x_max":819,"o":"m 607 928 l 65 928 l 65 1047 l 819 1047 l 167 -22 l 65 40 l 607 928 z "},"8":{"ha":803,"x_min":74,"x_max":729,"o":"m 543 431 q 513 460 543 431 q 401 489 482 489 q 260 431 321 489 q 199 292 199 374 q 261 154 199 214 q 401 94 324 94 q 542 154 479 94 q 604 292 604 214 q 543 431 604 374 m 74 292 q 117 447 74 379 q 239 543 160 515 q 101 778 101 621 q 188 987 101 904 q 401 1069 275 1069 q 615 987 528 1069 q 701 778 701 904 q 564 543 701 621 q 686 447 643 515 q 729 292 729 379 q 634 64 729 150 q 401 -22 539 -22 q 169 64 264 -22 q 74 292 74 150 m 526 906 q 499 932 526 906 q 401 958 472 958 q 277 906 331 958 q 224 778 224 853 q 280 658 224 715 q 401 600 336 600 q 523 658 467 600 q 579 778 579 715 q 526 906 579 853 z "},"9":{"ha":803,"x_min":72,"x_max":767,"o":"m 296 -22 l 201 43 l 481 419 l 478 422 q 376 403 439 403 q 160 500 249 403 q 72 725 72 597 q 174 969 72 868 q 418 1069 275 1069 q 661 970 556 1069 q 767 735 767 871 q 653 458 767 611 l 296 -22 m 419 514 q 579 579 517 514 q 642 733 642 644 q 577 885 642 818 q 428 953 513 953 q 265 888 333 953 q 197 733 197 822 q 266 578 197 643 q 419 514 335 514 z "},"�":{"ha":401,"x_min":0,"x_max":0,"o":""}," ":{"ha":401,"x_min":0,"x_max":0,"o":""},"!":{"ha":446,"x_min":143,"x_max":304,"o":"m 167 115 q 178 127 167 115 q 224 139 190 139 q 281 115 257 139 q 304 58 304 90 q 281 1 304 25 q 224 -22 257 -22 q 167 1 190 -22 q 143 58 143 25 q 167 115 143 90 m 161 242 l 161 1047 l 286 1047 l 286 242 l 161 242 z "},"\"":{"ha":610,"x_min":125,"x_max":485,"o":"m 125 1047 l 261 1047 l 236 592 l 150 592 l 125 1047 m 349 1047 l 485 1047 l 460 592 l 374 592 l 349 1047 z "},"#":{"ha":803,"x_min":35,"x_max":768,"o":"m 301 997 l 408 997 l 358 728 l 531 728 l 579 997 l 689 997 l 640 728 l 768 728 l 768 617 l 619 617 l 582 403 l 722 403 l 722 292 l 560 292 l 507 0 l 401 0 l 453 292 l 282 292 l 226 0 l 122 0 l 174 292 l 35 292 l 35 403 l 194 403 l 232 617 l 86 617 l 86 728 l 251 728 l 301 997 m 340 617 l 303 403 l 474 403 l 511 617 l 340 617 z "},"$":{"ha":803,"x_min":69,"x_max":733,"o":"m 463 485 l 463 108 q 567 176 526 122 q 608 297 608 231 q 463 485 608 408 m 393 1069 l 393 1194 l 463 1194 l 463 1069 q 700 908 621 1054 l 590 846 q 463 949 550 922 l 463 622 q 660 494 588 568 q 733 303 733 419 q 653 91 733 189 q 463 -22 574 -7 l 463 -154 l 393 -154 l 393 -22 q 181 64 272 -21 q 69 269 89 149 l 194 296 q 258 158 213 204 q 393 100 304 111 l 393 517 l 343 542 q 194 647 246 592 q 143 796 143 703 q 216 981 143 900 q 393 1069 289 1061 m 393 656 l 393 949 q 301 900 338 940 q 264 806 264 860 q 393 656 264 707 z "},"%":{"ha":983,"x_min":24,"x_max":961,"o":"m 96 999 q 132 1034 96 999 q 268 1069 168 1069 q 440 999 368 1069 q 513 831 513 929 q 440 663 513 732 q 268 593 367 593 q 97 663 169 593 q 24 831 24 732 q 96 999 24 929 m 381 940 q 357 963 381 940 q 268 986 333 986 q 155 940 203 986 q 107 831 107 894 q 155 722 107 768 q 268 676 203 676 q 381 722 333 676 q 429 831 429 768 q 381 940 429 894 m 767 1069 l 829 1033 l 218 -22 l 154 13 l 767 1069 m 544 384 q 581 419 544 384 q 717 454 617 454 q 889 384 817 454 q 961 215 961 314 q 888 47 961 117 q 717 -22 815 -22 q 545 47 618 -22 q 472 215 472 117 q 544 384 472 314 m 830 325 q 806 348 830 325 q 717 371 782 371 q 603 325 651 371 q 556 215 556 279 q 603 107 556 153 q 717 61 651 61 q 830 107 782 61 q 878 215 878 153 q 830 325 878 279 z "},"&":{"ha":961,"x_min":74,"x_max":983,"o":"m 399 517 l 386 508 q 358 489 385 507 q 325 466 332 471 q 295 443 318 461 q 263 416 272 425 q 238 389 254 407 q 215 357 221 371 q 202 324 208 343 q 196 288 196 306 q 256 153 196 213 q 390 94 315 94 q 483 118 436 94 q 560 167 531 142 q 631 233 589 192 l 399 517 m 426 681 l 443 692 q 470 712 449 696 q 500 735 492 728 q 524 759 508 743 q 548 787 540 775 q 562 817 556 799 q 568 853 568 835 q 534 937 568 907 q 446 967 500 967 q 363 935 397 967 q 329 856 329 904 q 340 805 329 831 q 360 766 351 779 q 392 725 369 753 l 426 681 m 822 0 l 708 142 q 394 -22 569 -22 q 167 65 261 -22 q 74 286 74 153 q 120 438 74 376 q 257 564 167 499 l 322 611 q 207 840 207 732 q 275 1008 207 946 q 449 1069 343 1069 q 619 1010 549 1069 q 690 851 690 951 q 674 772 690 810 q 626 699 658 733 q 568 643 594 665 q 500 590 542 621 l 718 326 l 840 468 l 924 382 l 796 232 l 983 0 l 822 0 z "},"’":{"ha":385,"x_min":39,"x_max":301,"o":"m 192 1069 l 301 1026 l 117 656 l 39 688 l 192 1069 z "},"(":{"ha":406,"x_min":79,"x_max":326,"o":"m 224 1124 l 326 1047 q 207 428 207 797 q 326 -192 207 58 l 224 -268 q 115 60 151 -125 q 79 428 79 246 q 115 796 79 610 q 224 1124 151 982 z "},")":{"ha":406,"x_min":79,"x_max":326,"o":"m 79 1047 l 182 1124 q 290 796 254 982 q 326 428 326 610 q 290 60 326 246 q 182 -268 254 -125 l 79 -192 q 199 428 199 58 q 79 1047 199 797 z "},"*":{"ha":600,"x_min":88,"x_max":513,"o":"m 256 1047 l 351 1047 l 351 915 l 464 982 l 513 900 l 394 831 l 513 761 l 464 681 l 351 750 l 351 617 l 256 617 l 256 751 l 135 683 l 88 763 l 206 831 l 89 900 l 132 979 l 256 911 l 256 1047 z "},"+":{"ha":803,"x_min":46,"x_max":757,"o":"m 342 711 l 461 711 l 461 415 l 757 415 l 757 296 l 461 296 l 461 0 l 342 0 l 342 296 l 46 296 l 46 415 l 342 415 l 342 711 z "},",":{"ha":401,"x_min":75,"x_max":336,"o":"m 228 165 l 336 122 l 151 -249 l 75 -217 l 228 165 z "},".":{"ha":401,"x_min":121,"x_max":282,"o":"m 144 115 q 156 127 144 115 q 201 139 168 139 q 258 115 235 139 q 282 58 282 90 q 258 1 282 25 q 201 -22 235 -22 q 144 1 168 -22 q 121 58 121 25 q 144 115 121 90 z "},"/":{"ha":765,"x_min":44,"x_max":722,"o":"m 622 1206 l 722 1161 l 143 -175 l 44 -131 l 622 1206 z "},":":{"ha":401,"x_min":121,"x_max":282,"o":"m 144 115 q 156 127 144 115 q 201 139 168 139 q 258 115 235 139 q 282 58 282 90 q 258 1 282 25 q 201 -22 235 -22 q 144 1 168 -22 q 121 58 121 25 q 144 115 121 90 m 144 645 q 156 657 144 645 q 201 669 168 669 q 258 645 235 669 q 282 589 282 621 q 258 532 282 556 q 201 508 235 508 q 144 532 168 508 q 121 589 121 556 q 144 645 121 621 z "},";":{"ha":401,"x_min":64,"x_max":347,"o":"m 217 165 l 325 122 l 140 -249 l 64 -217 l 217 165 m 210 645 q 222 657 210 645 q 267 669 233 669 q 324 645 300 669 q 347 589 347 621 q 324 532 347 556 q 267 508 300 508 q 210 532 233 508 q 186 589 186 556 q 210 645 186 621 z "},"<":{"ha":803,"x_min":46,"x_max":757,"o":"m 757 692 l 757 561 l 224 356 l 757 150 l 757 19 l 46 307 l 46 404 l 757 692 z "},"=":{"ha":803,"x_min":46,"x_max":757,"o":"m 46 535 l 757 535 l 757 415 l 46 415 l 46 535 m 46 296 l 757 296 l 757 176 l 46 176 l 46 296 z "},">":{"ha":803,"x_min":46,"x_max":757,"o":"m 46 561 l 46 692 l 757 404 l 757 307 l 46 19 l 46 150 l 579 356 l 46 561 z "},"?":{"ha":629,"x_min":71,"x_max":569,"o":"m 417 479 l 543 479 q 478 323 547 390 q 318 256 408 256 q 160 320 225 256 q 94 478 94 385 q 140 609 94 567 q 269 682 186 651 q 297 692 276 685 q 326 703 318 700 q 353 713 335 706 q 378 726 371 721 q 399 740 385 731 q 418 757 413 749 q 431 776 424 765 q 440 800 438 788 q 443 828 443 813 q 407 918 443 885 q 315 951 371 951 q 231 916 267 951 q 196 832 196 881 q 204 788 196 818 l 74 788 l 71 833 q 142 1001 65 932 q 319 1069 218 1069 q 497 999 425 1069 q 569 824 569 928 q 494 651 569 715 q 322 574 451 614 q 221 472 221 543 q 249 401 221 431 q 318 372 276 372 q 390 403 363 372 q 417 479 418 435 m 261 115 q 273 127 261 115 q 318 139 285 139 q 375 115 351 139 q 399 58 399 90 q 375 1 399 25 q 318 -22 351 -22 q 261 1 285 -22 q 238 58 238 25 q 261 115 238 90 z "},"@":{"ha":1111,"x_min":50,"x_max":1063,"o":"m 699 517 q 669 647 708 600 q 557 693 631 693 q 425 628 476 693 q 374 481 374 563 q 412 369 374 417 q 513 322 450 322 q 643 377 599 322 q 699 517 688 432 m 733 703 l 753 789 l 851 789 l 782 432 q 770 355 769 397 q 801 313 771 313 q 901 396 851 313 q 951 579 951 479 q 845 855 951 751 q 576 958 739 958 q 281 831 401 958 q 161 524 161 704 q 290 213 161 336 q 600 89 418 89 q 858 156 779 89 l 963 72 q 793 1 874 25 q 589 -22 713 -22 q 206 133 363 -22 q 50 524 50 289 q 203 913 50 756 q 581 1069 357 1069 q 907 949 774 1069 q 1063 629 1063 814 q 976 335 1063 447 q 872 242 929 272 q 763 214 815 211 q 688 300 701 217 q 499 214 601 214 q 335 290 406 214 q 265 471 265 365 q 344 702 265 603 q 549 801 424 801 q 733 703 657 801 z "},"A":{"ha":976,"x_min":-11,"x_max":989,"o":"m 729 263 l 249 263 l 129 0 l -11 0 l 489 1092 l 989 0 l 849 0 l 729 263 m 675 382 l 489 806 l 303 382 l 675 382 z "},"B":{"ha":743,"x_min":89,"x_max":697,"o":"m 219 931 l 219 583 l 253 583 q 419 619 361 583 q 478 758 478 656 q 420 895 478 860 q 256 931 363 931 l 219 931 m 219 479 l 219 117 l 319 117 q 567 301 567 117 q 542 391 567 354 q 476 446 518 428 q 392 472 435 464 q 300 479 349 479 l 219 479 m 89 0 l 89 1047 l 217 1047 q 361 1035 297 1047 q 481 992 425 1022 q 569 903 538 963 q 600 760 600 844 q 569 642 600 700 q 488 561 539 585 l 488 558 q 638 465 578 542 q 697 293 697 388 q 592 73 697 146 q 333 0 486 0 l 89 0 z "},"C":{"ha":918,"x_min":42,"x_max":863,"o":"m 863 999 l 863 847 q 586 950 747 950 q 292 824 413 950 q 172 522 172 699 q 291 223 172 349 q 583 97 410 97 q 863 206 742 97 l 863 51 q 588 -22 738 -22 q 202 135 363 -22 q 42 518 42 292 q 204 910 42 750 q 599 1069 367 1069 q 863 999 747 1069 z "},"D":{"ha":924,"x_min":89,"x_max":893,"o":"m 89 0 l 89 1047 l 306 1047 q 726 913 560 1047 q 893 529 893 779 q 728 136 893 272 q 301 0 563 0 l 89 0 m 219 928 l 219 119 l 265 119 q 457 140 371 119 q 613 207 543 161 q 723 333 683 253 q 763 524 763 414 q 723 715 763 635 q 613 841 683 796 q 456 907 542 886 q 265 928 371 928 l 219 928 z "},"E":{"ha":724,"x_min":100,"x_max":663,"o":"m 100 0 l 100 1047 l 663 1047 l 663 928 l 231 928 l 231 635 l 650 635 l 650 515 l 231 515 l 231 119 l 663 119 l 663 0 l 100 0 z "},"F":{"ha":658,"x_min":99,"x_max":606,"o":"m 606 928 l 229 928 l 229 633 l 593 633 l 593 514 l 229 514 l 229 0 l 99 0 l 99 1047 l 606 1047 l 606 928 z "},"G":{"ha":1083,"x_min":29,"x_max":1054,"o":"m 639 528 l 1054 528 l 1054 486 q 915 123 1054 268 q 558 -22 776 -22 q 185 140 340 -22 q 29 521 29 301 q 188 908 29 747 q 572 1069 347 1069 q 809 1016 696 1069 q 999 867 922 963 l 907 779 q 761 903 850 857 q 578 950 672 950 q 281 826 403 950 q 160 525 160 701 q 280 227 160 357 q 567 97 400 97 q 799 190 692 97 q 910 408 906 283 l 639 408 l 639 528 z "},"H":{"ha":938,"x_min":89,"x_max":849,"o":"m 219 625 l 718 625 l 718 1047 l 849 1047 l 849 0 l 718 0 l 718 503 l 219 503 l 219 0 l 89 0 l 89 1047 l 219 1047 l 219 625 z "},"I":{"ha":322,"x_min":96,"x_max":226,"o":"m 226 1047 l 226 0 l 96 0 l 96 1047 l 226 1047 z "},"J":{"ha":503,"x_min":-26,"x_max":421,"o":"m 290 1047 l 421 1047 l 421 382 q 410 233 421 297 q 372 106 400 168 q 284 11 343 44 q 138 -22 225 -22 q -26 24 50 -22 l 39 135 q 143 100 85 100 q 198 111 174 100 q 238 136 222 122 q 264 178 253 150 q 280 225 275 206 q 288 281 285 244 q 290 332 290 317 q 290 382 290 347 l 290 1047 z "},"K":{"ha":833,"x_min":100,"x_max":854,"o":"m 231 593 l 675 1047 l 846 1047 l 375 576 l 854 0 l 678 0 l 283 488 l 231 438 l 231 0 l 100 0 l 100 1047 l 231 1047 l 231 593 z "},"L":{"ha":535,"x_min":100,"x_max":549,"o":"m 231 1047 l 231 119 l 549 119 l 549 0 l 100 0 l 100 1047 l 231 1047 z "},"M":{"ha":1182,"x_min":18,"x_max":1165,"o":"m 592 -22 l 278 692 l 275 692 l 153 0 l 18 0 l 232 1092 l 592 267 l 951 1092 l 1165 0 l 1031 0 l 908 692 l 906 692 l 592 -22 z "},"N":{"ha":1090,"x_min":88,"x_max":1004,"o":"m 88 0 l 88 1097 l 874 274 l 874 1047 l 1004 1047 l 1004 -43 l 218 781 l 218 0 l 88 0 z "},"O":{"ha":1150,"x_min":26,"x_max":1124,"o":"m 188 909 q 269 989 188 909 q 575 1069 350 1069 q 962 909 800 1069 q 1124 524 1124 749 q 964 135 1124 292 q 575 -22 804 -22 q 186 135 346 -22 q 26 524 26 292 q 188 909 26 749 m 281 223 q 342 161 281 223 q 575 100 404 100 q 869 223 746 100 q 993 524 993 346 q 874 824 993 700 q 575 947 756 947 q 276 824 394 947 q 157 524 157 700 q 281 223 157 346 z "},"P":{"ha":688,"x_min":100,"x_max":672,"o":"m 231 439 l 231 0 l 100 0 l 100 1047 l 250 1047 q 577 972 482 1047 q 672 744 672 896 q 570 514 672 589 q 306 439 468 439 l 231 439 m 231 931 l 231 556 l 272 556 q 373 563 329 556 q 460 588 417 569 q 526 647 503 607 q 550 747 550 688 q 525 844 550 806 q 454 901 500 883 q 365 924 408 918 q 265 931 322 931 l 231 931 z "},"Q":{"ha":1150,"x_min":26,"x_max":1124,"o":"m 1122 -22 l 964 -22 l 874 71 q 575 -22 739 -22 q 186 135 346 -22 q 26 524 26 292 q 188 909 26 749 q 575 1069 350 1069 q 962 909 800 1069 q 1124 524 1124 749 q 1081 312 1124 413 q 960 138 1038 211 l 1122 -22 m 706 394 l 871 231 q 961 363 929 282 q 993 524 993 444 q 874 824 993 700 q 575 947 756 947 q 276 824 394 947 q 157 524 157 700 q 281 223 157 346 q 575 100 404 100 q 783 160 689 100 l 543 394 l 706 394 z "},"R":{"ha":754,"x_min":100,"x_max":751,"o":"m 421 456 l 751 0 l 593 0 l 285 443 l 231 443 l 231 0 l 100 0 l 100 1047 l 258 1047 q 355 1045 318 1047 q 444 1032 392 1043 q 535 999 496 1021 q 635 893 599 961 q 672 749 672 825 q 603 552 672 635 q 421 456 533 469 m 231 931 l 231 551 l 272 551 q 373 558 329 551 q 460 584 417 565 q 526 643 503 603 q 550 743 550 683 q 265 931 550 931 l 231 931 z "},"S":{"ha":746,"x_min":44,"x_max":703,"o":"m 669 911 l 565 849 q 397 947 507 947 q 276 906 331 947 q 222 799 222 864 q 368 649 222 704 l 443 619 q 635 499 568 571 q 703 304 703 426 q 606 70 703 163 q 368 -22 510 -22 q 151 60 242 -22 q 44 271 61 143 l 176 299 q 234 157 175 214 q 379 100 293 100 q 517 160 463 100 q 572 304 572 221 q 524 424 572 381 q 392 503 476 468 l 319 533 q 152 639 213 579 q 92 799 92 699 q 183 995 92 921 q 400 1069 275 1069 q 669 911 581 1069 z "},"T":{"ha":633,"x_min":3,"x_max":631,"o":"m 382 928 l 382 0 l 251 0 l 251 928 l 3 928 l 3 1047 l 631 1047 l 631 928 l 382 928 z "},"U":{"ha":929,"x_min":82,"x_max":849,"o":"m 82 1047 l 213 1047 l 213 429 q 465 100 213 100 q 718 429 718 100 l 718 1047 l 849 1047 l 849 385 q 745 92 849 207 q 465 -22 642 -22 q 185 92 289 -22 q 82 385 82 207 l 82 1047 z "},"V":{"ha":889,"x_min":-10,"x_max":900,"o":"m 133 1047 l 446 272 l 757 1047 l 900 1047 l 446 -56 l -10 1047 l 133 1047 z "},"W":{"ha":1426,"x_min":-17,"x_max":1444,"o":"m 125 1047 l 418 297 l 714 1069 l 1010 297 l 1303 1047 l 1444 1047 l 1010 -42 l 714 726 l 418 -42 l -17 1047 l 125 1047 z "},"X":{"ha":797,"x_min":0,"x_max":796,"o":"m 329 549 l 40 1047 l 189 1047 l 403 665 l 631 1047 l 779 1047 l 478 549 l 796 0 l 650 0 l 403 429 l 146 0 l 0 0 l 329 549 z "},"Y":{"ha":796,"x_min":-8,"x_max":806,"o":"m 333 456 l -8 1047 l 142 1047 l 399 600 l 656 1047 l 806 1047 l 464 456 l 464 0 l 333 0 l 333 456 z "},"Z":{"ha":767,"x_min":13,"x_max":756,"o":"m 225 119 l 756 119 l 756 0 l 13 0 l 543 928 l 88 928 l 88 1047 l 756 1047 l 225 119 z "},"[":{"ha":432,"x_min":85,"x_max":349,"o":"m 213 1007 l 213 -151 l 349 -151 l 349 -268 l 85 -268 l 85 1124 l 349 1124 l 349 1007 l 213 1007 z "},"\\":{"ha":765,"x_min":43,"x_max":721,"o":"m 43 1206 l 160 1206 l 721 0 l 604 0 l 43 1206 z "},"]":{"ha":432,"x_min":83,"x_max":347,"o":"m 219 -151 l 219 1007 l 83 1007 l 83 1124 l 347 1124 l 347 -268 l 83 -268 l 83 -151 l 219 -151 z "},"^":{"ha":803,"x_min":46,"x_max":757,"o":"m 46 428 l 324 1047 l 479 1047 l 757 428 l 626 428 l 401 931 l 175 428 l 46 428 z "},"_":{"ha":694,"x_min":0,"x_max":694,"o":"m 694 -157 l 694 -261 l 0 -261 l 0 -157 l 694 -157 z "},"‘":{"ha":385,"x_min":83,"x_max":346,"o":"m 193 656 l 83 699 l 268 1069 l 346 1038 l 193 656 z "},"a":{"ha":772,"x_min":36,"x_max":696,"o":"m 367 89 q 522 157 465 89 q 578 325 578 225 q 521 491 578 424 q 367 558 464 558 q 217 490 274 558 q 161 325 161 421 q 217 158 161 228 q 367 89 272 89 m 696 650 l 696 0 l 571 0 l 571 101 l 568 101 q 347 -22 485 -22 q 120 80 204 -22 q 36 329 36 182 q 121 569 36 468 q 343 669 206 669 q 568 542 483 669 l 571 542 l 571 650 l 696 650 z "},"b":{"ha":772,"x_min":76,"x_max":736,"o":"m 400 89 q 555 157 499 89 q 611 325 611 225 q 554 491 611 424 q 400 558 497 558 q 251 490 307 558 q 194 325 194 421 q 250 158 194 228 q 400 89 306 89 m 76 0 l 76 1206 l 201 1206 l 201 542 l 204 542 q 431 669 289 669 q 651 569 567 669 q 736 329 736 468 q 653 80 736 182 q 425 -22 569 -22 q 301 11 358 -22 q 204 101 243 44 l 201 101 l 201 0 l 76 0 z "},"c":{"ha":613,"x_min":36,"x_max":564,"o":"m 564 626 l 564 465 q 378 553 488 553 q 224 485 288 553 q 161 325 161 417 q 224 160 161 225 q 386 94 288 94 q 564 181 488 94 l 564 21 q 385 -22 483 -22 q 138 76 240 -22 q 36 319 36 175 q 138 569 36 469 q 392 669 240 669 q 564 626 490 669 z "},"d":{"ha":772,"x_min":36,"x_max":696,"o":"m 367 89 q 522 157 465 89 q 578 325 578 225 q 521 491 578 424 q 367 558 464 558 q 217 490 274 558 q 161 325 161 421 q 217 158 161 228 q 367 89 272 89 m 571 0 l 571 101 l 568 101 q 472 11 529 44 q 347 -22 414 -22 q 119 80 203 -22 q 36 329 36 182 q 121 569 36 468 q 342 669 206 669 q 568 542 483 669 l 571 542 l 571 1206 l 696 1206 l 696 0 l 571 0 z "},"e":{"ha":678,"x_min":36,"x_max":657,"o":"m 657 304 l 161 304 q 217 153 163 217 q 357 89 271 89 q 469 120 425 89 q 551 215 513 151 l 657 156 q 531 25 611 72 q 356 -22 451 -22 q 123 75 210 -22 q 36 319 36 172 q 118 572 36 475 q 353 669 200 669 q 579 573 501 669 q 657 324 657 476 l 657 304 m 168 399 l 532 399 q 474 517 521 474 q 353 561 426 561 q 230 515 281 561 q 168 399 179 469 z "},"f":{"ha":382,"x_min":54,"x_max":408,"o":"m 408 1206 l 408 1079 q 325 1106 349 1106 q 282 1092 300 1106 q 256 1063 264 1079 q 242 1017 247 1046 q 237 973 238 989 q 236 929 236 957 l 236 650 l 408 650 l 408 533 l 236 533 l 236 0 l 111 0 l 111 533 l 54 533 l 54 650 l 111 650 l 111 967 q 321 1222 111 1222 q 408 1206 367 1222 z "},"g":{"ha":771,"x_min":35,"x_max":694,"o":"m 365 89 q 520 157 464 89 q 576 325 576 225 q 519 491 576 424 q 365 558 463 558 q 216 490 272 558 q 160 325 160 421 q 215 158 160 228 q 365 89 271 89 m 694 650 l 694 13 q 625 -272 694 -172 q 378 -372 556 -372 q 153 -293 240 -372 q 64 -78 65 -214 l 189 -78 q 242 -212 189 -164 q 383 -261 296 -261 q 530 -199 490 -261 q 569 -22 569 -136 l 569 101 l 567 101 q 470 11 528 44 q 346 -22 413 -22 q 118 80 201 -22 q 35 329 35 182 q 119 569 35 468 q 340 669 204 669 q 567 539 483 669 l 569 539 l 569 650 l 694 650 z "},"h":{"ha":726,"x_min":86,"x_max":640,"o":"m 86 1206 l 211 1206 l 211 563 l 214 563 q 295 642 242 614 q 410 669 349 669 q 589 594 538 669 q 640 388 640 519 l 640 0 l 515 0 l 515 372 q 488 513 515 468 q 372 558 461 558 q 304 549 333 558 q 258 517 275 539 q 231 474 242 494 q 217 417 221 454 q 212 360 213 381 q 211 299 211 339 l 211 0 l 86 0 l 86 1206 z "},"i":{"ha":353,"x_min":90,"x_max":263,"o":"m 239 650 l 239 0 l 114 0 l 114 650 l 239 650 m 115 1009 q 128 1022 115 1009 q 176 1035 140 1035 q 238 1009 213 1035 q 263 947 263 983 q 238 888 263 913 q 176 863 213 863 q 115 888 140 863 q 90 947 90 913 q 115 1009 90 983 z "},"j":{"ha":353,"x_min":90,"x_max":263,"o":"m 239 650 l 239 -372 l 114 -372 l 114 650 l 239 650 m 115 1009 q 128 1022 115 1009 q 176 1035 140 1035 q 238 1009 213 1035 q 263 947 263 983 q 238 888 263 913 q 176 863 213 863 q 115 888 140 863 q 90 947 90 913 q 115 1009 90 983 z "},"k":{"ha":642,"x_min":94,"x_max":657,"o":"m 219 1206 l 219 406 l 464 650 l 629 650 l 351 381 l 657 0 l 494 0 l 263 296 l 219 253 l 219 0 l 94 0 l 94 1206 l 219 1206 z "},"l":{"ha":308,"x_min":92,"x_max":217,"o":"m 217 1206 l 217 0 l 92 0 l 92 1206 l 217 1206 z "},"m":{"ha":1065,"x_min":82,"x_max":985,"o":"m 207 650 l 207 568 l 210 568 q 284 641 238 613 q 382 669 331 669 q 569 554 503 669 q 654 638 600 607 q 769 669 708 669 q 985 389 985 669 l 985 0 l 860 0 l 860 368 q 856 434 860 406 q 841 494 853 463 q 803 542 829 525 q 739 558 778 558 q 673 542 700 558 q 631 503 646 526 q 608 446 617 481 q 598 383 600 411 q 596 319 596 356 l 596 0 l 471 0 l 471 344 q 469 400 471 378 q 462 456 468 422 q 444 508 456 489 q 408 543 432 528 q 351 558 385 558 q 273 537 304 558 q 228 476 242 515 q 211 401 215 436 q 207 319 207 367 l 207 0 l 82 0 l 82 650 l 207 650 z "},"n":{"ha":726,"x_min":86,"x_max":640,"o":"m 211 650 l 211 563 l 214 563 q 295 642 242 614 q 410 669 349 669 q 589 594 538 669 q 640 388 640 519 l 640 0 l 515 0 l 515 372 q 488 513 515 468 q 372 558 461 558 q 304 549 333 558 q 258 517 275 539 q 231 474 242 494 q 217 417 221 454 q 212 360 213 381 q 211 299 211 339 l 211 0 l 86 0 l 86 650 l 211 650 z "},"o":{"ha":750,"x_min":28,"x_max":722,"o":"m 128 569 q 179 619 128 569 q 375 669 229 669 q 622 569 521 669 q 722 324 722 469 q 622 78 722 178 q 375 -22 521 -22 q 128 78 229 -22 q 28 324 28 178 q 128 569 28 469 m 532 483 q 499 517 532 483 q 375 550 467 550 q 218 483 283 550 q 153 324 153 417 q 218 165 153 232 q 375 97 283 97 q 532 165 467 97 q 597 324 597 232 q 532 483 597 417 z "},"p":{"ha":772,"x_min":76,"x_max":736,"o":"m 400 89 q 555 157 499 89 q 611 325 611 225 q 554 491 611 424 q 400 558 497 558 q 251 490 307 558 q 194 325 194 421 q 250 158 194 228 q 400 89 306 89 m 201 650 l 201 542 l 204 542 q 431 669 289 669 q 651 569 567 669 q 736 329 736 468 q 653 80 736 182 q 425 -22 569 -22 q 301 11 358 -22 q 204 101 243 44 l 201 101 l 201 -372 l 76 -372 l 76 650 l 201 650 z "},"q":{"ha":772,"x_min":36,"x_max":696,"o":"m 367 89 q 522 157 465 89 q 578 325 578 225 q 521 491 578 424 q 367 558 464 558 q 217 490 274 558 q 161 325 161 421 q 217 158 161 228 q 367 89 272 89 m 696 650 l 696 -372 l 571 -372 l 571 101 l 568 101 q 472 11 529 44 q 347 -22 414 -22 q 119 80 203 -22 q 36 329 36 182 q 121 569 36 468 q 342 669 206 669 q 568 542 483 669 l 571 542 l 571 650 l 696 650 z "},"r":{"ha":488,"x_min":94,"x_max":504,"o":"m 219 650 l 219 544 l 224 544 q 294 636 247 603 q 401 669 340 669 q 504 638 454 669 l 447 524 q 371 550 417 550 q 290 530 322 550 q 244 473 258 510 q 224 401 229 436 q 219 319 219 365 l 219 0 l 94 0 l 94 650 l 219 650 z "},"s":{"ha":533,"x_min":49,"x_max":497,"o":"m 449 556 l 347 501 q 264 558 319 558 q 217 540 238 558 q 196 494 196 521 q 199 472 196 482 q 213 452 203 461 q 231 436 224 443 q 256 420 239 429 q 283 406 274 411 q 316 392 293 401 q 347 378 339 382 q 457 304 417 346 q 497 193 497 263 q 431 40 497 101 q 274 -22 365 -22 q 137 17 200 -22 q 49 124 74 57 l 156 172 q 274 89 201 89 q 343 115 314 89 q 372 181 372 140 q 326 251 372 221 l 204 317 q 110 385 140 351 q 79 481 79 419 q 135 615 79 560 q 271 669 192 669 q 449 556 393 669 z "},"t":{"ha":333,"x_min":36,"x_max":351,"o":"m 229 533 l 229 0 l 104 0 l 104 533 l 36 533 l 36 650 l 104 650 l 104 899 l 229 899 l 229 650 l 351 650 l 351 533 l 229 533 z "},"u":{"ha":711,"x_min":81,"x_max":631,"o":"m 81 650 l 206 650 l 206 290 q 238 147 206 200 q 356 94 271 94 q 473 147 440 94 q 506 290 506 200 l 506 650 l 631 650 l 631 276 q 563 58 631 138 q 356 -22 494 -22 q 149 58 217 -22 q 81 276 81 138 l 81 650 z "},"v":{"ha":618,"x_min":-18,"x_max":636,"o":"m 122 650 l 308 244 l 496 650 l 636 650 l 308 -22 l -18 650 l 122 650 z "},"w":{"ha":997,"x_min":-22,"x_max":1021,"o":"m 119 650 l 308 236 l 500 686 l 690 236 l 879 650 l 1021 650 l 690 -22 l 500 413 l 308 -22 l -22 650 l 119 650 z "},"x":{"ha":679,"x_min":-19,"x_max":699,"o":"m 271 353 l 38 650 l 185 650 l 339 440 l 507 650 l 658 650 l 419 353 l 699 0 l 553 0 l 339 264 l 132 0 l -19 0 l 271 353 z "},"y":{"ha":672,"x_min":-18,"x_max":692,"o":"m 279 111 l -18 650 l 128 650 l 347 238 l 551 650 l 692 650 l 165 -372 l 24 -372 l 279 111 z "},"z":{"ha":688,"x_min":3,"x_max":686,"o":"m 246 117 l 668 117 l 668 0 l 3 0 l 443 533 l 78 533 l 78 650 l 686 650 l 246 117 z "},"{":{"ha":464,"x_min":67,"x_max":397,"o":"m 67 376 l 67 478 q 171 688 171 524 l 171 940 q 212 1070 171 1017 q 289 1124 253 1124 l 397 1124 l 397 1007 l 342 1007 q 311 993 321 1007 q 300 965 301 979 q 299 921 299 951 l 299 665 q 274 535 299 593 q 230 458 249 478 q 193 426 211 439 q 218 406 204 419 q 252 365 232 392 q 285 291 272 338 q 299 189 299 244 l 299 -67 q 300 -111 299 -97 q 311 -139 301 -125 q 342 -153 321 -153 l 397 -153 l 397 -269 l 289 -269 q 212 -216 253 -269 q 171 -86 171 -162 l 171 167 q 67 376 171 331 z "},"|":{"ha":792,"x_min":336,"x_max":456,"o":"m 456 1206 l 456 0 l 336 0 l 336 1206 l 456 1206 z "},"}":{"ha":464,"x_min":67,"x_max":397,"o":"m 397 478 l 397 376 q 293 167 293 331 l 293 -86 q 252 -216 293 -162 q 175 -269 211 -269 l 67 -269 l 67 -153 l 122 -153 q 153 -139 143 -153 q 164 -111 163 -125 q 165 -67 165 -97 l 165 189 q 178 291 165 244 q 212 365 192 338 q 246 406 232 392 q 271 426 260 419 q 234 458 253 439 q 190 535 215 478 q 165 665 165 593 l 165 921 q 164 965 165 951 q 153 993 163 979 q 122 1007 143 1007 l 67 1007 l 67 1124 l 175 1124 q 252 1070 211 1124 q 293 940 293 1017 l 293 688 q 397 478 293 524 z "},"~":{"ha":803,"x_min":46,"x_max":757,"o":"m 664 464 l 757 394 q 546 225 664 225 q 386 296 490 225 q 357 316 376 303 q 328 336 338 329 q 304 351 318 343 q 280 363 290 360 q 261 367 269 367 q 199 339 228 367 q 133 253 169 311 l 46 315 q 88 375 76 360 q 131 424 100 390 q 192 472 161 458 q 258 486 224 486 q 428 415 335 486 q 453 395 436 408 q 480 375 471 382 q 501 360 489 368 q 524 348 514 351 q 544 344 535 344 q 599 368 578 344 q 654 447 621 392 q 664 464 661 458 z "},"¡":{"ha":446,"x_min":143,"x_max":304,"o":"m 167 681 q 178 693 167 681 q 224 706 190 706 q 281 681 257 706 q 304 625 304 657 q 281 568 304 592 q 224 544 257 544 q 167 568 190 544 q 143 625 143 592 q 167 681 143 657 m 161 449 l 286 449 l 286 -358 l 161 -358 l 161 449 z "},"¢":{"ha":803,"x_min":139,"x_max":664,"o":"m 494 978 l 494 872 q 664 829 597 867 l 664 669 l 661 669 q 494 757 596 754 l 494 301 q 664 388 596 315 l 664 225 q 518 186 594 192 l 494 185 l 494 67 l 428 67 l 428 190 q 220 303 301 210 q 139 524 139 396 q 219 752 139 654 q 428 869 300 850 l 428 978 l 494 978 m 428 306 l 428 749 q 309 671 357 740 q 261 529 261 601 q 307 386 261 451 q 428 306 353 321 z "},"£":{"ha":803,"x_min":15,"x_max":807,"o":"m 125 -22 l 15 33 q 106 148 58 108 q 229 190 154 188 q 218 418 271 329 l 39 418 l 39 499 l 178 499 q 97 749 97 651 q 202 975 97 881 q 440 1069 307 1069 q 676 980 586 1069 q 774 744 767 890 l 649 697 l 649 736 q 591 885 649 824 q 446 947 533 947 q 292 881 361 947 q 222 738 222 815 q 233 668 222 704 q 256 610 244 632 q 290 551 268 588 q 321 499 313 514 l 526 499 l 526 418 l 354 418 q 354 179 390 301 l 457 143 q 495 128 465 140 q 547 109 525 115 q 588 103 568 103 q 638 122 614 103 q 674 158 663 140 q 703 206 686 175 l 807 142 q 720 23 775 68 q 590 -22 665 -22 q 408 24 524 -22 q 247 68 299 68 q 125 -22 161 68 z "},"⁄":{"ha":229,"x_min":-226,"x_max":456,"o":"m 385 1069 l 456 1033 l -156 -22 l -226 17 l 385 1069 z "},"¥":{"ha":803,"x_min":-6,"x_max":808,"o":"m 467 361 l 467 0 l 336 0 l 336 361 l 8 361 l 8 442 l 336 442 l 336 456 l 261 586 l 8 586 l 8 667 l 214 667 l -6 1047 l 144 1047 l 401 600 l 658 1047 l 808 1047 l 589 667 l 794 667 l 794 586 l 543 586 l 467 456 l 467 442 l 794 442 l 794 361 l 467 361 z "},"ƒ":{"ha":803,"x_min":19,"x_max":750,"o":"m 493 701 l 672 701 l 660 607 l 478 607 l 401 186 q 384 92 392 128 q 362 10 376 57 q 331 -64 347 -36 q 290 -122 315 -92 q 232 -169 264 -153 q 155 -197 200 -186 q 53 -207 110 -207 l 19 -207 l 40 -87 l 67 -87 q 135 -78 106 -87 q 186 -48 165 -69 q 220 -8 207 -26 q 244 50 233 11 q 258 110 254 89 q 271 179 263 131 l 344 607 l 254 607 l 267 701 l 364 701 l 393 874 q 476 1087 417 1013 q 667 1161 536 1161 q 750 1151 713 1161 l 728 1035 q 671 1044 703 1044 q 614 1033 639 1044 q 576 1007 589 1021 q 551 963 563 993 q 535 915 539 932 q 524 858 531 897 l 493 701 z "},"§":{"ha":803,"x_min":56,"x_max":747,"o":"m 297 465 l 540 344 q 601 408 578 368 q 624 490 624 449 q 597 561 624 535 q 518 613 569 588 l 263 742 q 202 678 225 718 q 179 594 179 638 q 188 549 179 569 q 219 513 197 529 q 254 488 240 497 q 297 465 268 479 m 431 267 l 235 363 q 163 401 188 386 q 110 442 139 415 q 68 501 81 468 q 56 581 56 535 q 189 806 56 706 q 128 960 128 875 q 208 1135 128 1064 q 393 1206 288 1206 q 583 1143 504 1206 q 669 972 663 1081 l 549 972 q 499 1063 546 1029 q 393 1096 453 1096 q 294 1056 335 1096 q 253 957 253 1015 q 284 875 253 907 q 371 817 315 843 l 556 724 q 624 687 599 701 q 682 647 649 672 q 731 588 715 621 q 747 517 747 556 q 713 386 747 449 q 624 282 679 324 q 697 113 697 213 q 610 -81 697 -7 q 401 -156 522 -156 q 176 -75 264 -156 q 88 143 88 6 l 88 164 l 211 164 q 261 18 208 78 q 400 -42 314 -42 q 520 3 468 -42 q 572 115 572 47 q 560 168 572 144 q 524 211 549 192 q 482 240 499 231 q 431 267 465 250 z "},"¤":{"ha":803,"x_min":0,"x_max":818,"o":"m 818 1013 l 789 894 q 569 950 697 950 q 342 861 422 950 q 238 639 261 772 l 733 639 l 714 558 l 226 558 q 225 522 225 536 q 231 456 225 490 l 679 456 l 660 375 l 244 375 q 351 177 271 257 q 567 97 431 97 q 682 112 633 97 q 789 167 731 126 l 789 26 q 571 -22 700 -22 q 264 80 389 -22 q 107 375 139 182 l 0 375 l 19 456 l 97 456 q 94 518 94 506 q 96 558 94 536 l 1 558 l 21 639 l 104 639 q 269 959 139 849 q 582 1069 399 1069 q 705 1055 638 1069 q 818 1013 772 1040 z "},"'":{"ha":385,"x_min":125,"x_max":261,"o":"m 125 1047 l 261 1047 l 236 592 l 150 592 l 125 1047 z "},"“":{"ha":610,"x_min":83,"x_max":576,"o":"m 424 656 l 314 699 l 499 1069 l 576 1038 l 424 656 m 193 656 l 83 699 l 268 1069 l 346 1038 l 193 656 z "},"«":{"ha":726,"x_min":42,"x_max":639,"o":"m 432 444 l 639 179 l 561 122 l 308 444 l 561 778 l 639 721 l 432 444 m 165 444 l 372 179 l 294 122 l 42 444 l 294 778 l 372 721 l 165 444 z "},"‹":{"ha":467,"x_min":31,"x_max":361,"o":"m 154 444 l 361 179 l 283 122 l 31 444 l 283 778 l 361 721 l 154 444 z "},"›":{"ha":467,"x_min":106,"x_max":436,"o":"m 106 179 l 313 444 l 106 721 l 183 778 l 436 444 l 183 122 l 106 179 z "},"ﬁ":{"ha":711,"x_min":54,"x_max":621,"o":"m 597 650 l 597 0 l 472 0 l 472 650 l 597 650 m 474 1009 q 486 1022 474 1009 q 535 1035 499 1035 q 596 1009 571 1035 q 621 947 621 983 q 596 888 621 913 q 535 863 571 863 q 474 888 499 863 q 449 947 449 913 q 474 1009 449 983 m 408 1206 l 408 1079 q 325 1106 349 1106 q 282 1092 300 1106 q 256 1063 264 1079 q 242 1017 247 1046 q 237 973 238 989 q 236 929 236 957 l 236 650 l 408 650 l 408 533 l 236 533 l 236 0 l 111 0 l 111 533 l 54 533 l 54 650 l 111 650 l 111 967 q 321 1222 111 1222 q 408 1206 367 1222 z "},"ﬂ":{"ha":690,"x_min":54,"x_max":599,"o":"m 599 1206 l 599 0 l 474 0 l 474 1206 l 599 1206 m 408 1206 l 408 1079 q 325 1106 349 1106 q 282 1092 300 1106 q 256 1063 264 1079 q 242 1017 247 1046 q 237 973 238 989 q 236 929 236 957 l 236 650 l 408 650 l 408 533 l 236 533 l 236 0 l 111 0 l 111 533 l 54 533 l 54 650 l 111 650 l 111 967 q 321 1222 111 1222 q 408 1206 367 1222 z "},"–":{"ha":694,"x_min":0,"x_max":694,"o":"m 0 497 l 694 497 l 694 393 l 0 393 l 0 497 z "},"†":{"ha":803,"x_min":88,"x_max":715,"o":"m 339 1206 l 464 1206 l 464 824 l 715 824 l 715 704 l 464 704 l 464 -122 l 339 -122 l 339 704 l 88 704 l 88 824 l 339 824 l 339 1206 z "},"‡":{"ha":803,"x_min":88,"x_max":715,"o":"m 339 1206 l 464 1206 l 464 874 l 715 874 l 715 754 l 464 754 l 464 585 l 715 585 l 715 465 l 464 465 l 464 -121 l 339 -121 l 339 465 l 88 465 l 88 585 l 339 585 l 339 754 l 88 754 l 88 874 l 339 874 l 339 1206 z "},"·":{"ha":401,"x_min":121,"x_max":282,"o":"m 144 412 q 156 424 144 412 q 201 436 168 436 q 258 412 235 436 q 282 356 282 388 q 258 299 282 322 q 201 275 235 275 q 144 299 168 275 q 121 356 121 322 q 144 412 121 388 z "},"¶":{"ha":803,"x_min":57,"x_max":747,"o":"m 747 1047 l 747 931 l 663 931 l 663 -212 l 546 -212 l 546 931 l 460 931 l 460 -212 l 343 -212 l 343 393 q 145 472 224 393 q 57 690 67 551 q 135 935 47 822 q 356 1047 224 1047 l 747 1047 z "},"•":{"ha":803,"x_min":140,"x_max":664,"o":"m 587 339 q 548 301 587 339 q 401 263 510 263 q 217 339 293 263 q 140 524 140 415 q 215 710 139 633 q 401 786 292 786 q 588 710 511 786 q 664 524 664 633 q 587 339 664 415 z "},"‚":{"ha":385,"x_min":75,"x_max":336,"o":"m 228 165 l 336 122 l 151 -249 l 75 -217 l 228 165 z "},"„":{"ha":610,"x_min":69,"x_max":561,"o":"m 222 165 l 331 122 l 146 -249 l 69 -217 l 222 165 m 453 165 l 561 122 l 376 -249 l 300 -217 l 453 165 z "},"”":{"ha":610,"x_min":33,"x_max":526,"o":"m 186 1069 l 296 1026 l 111 656 l 33 688 l 186 1069 m 417 1069 l 526 1026 l 342 656 l 264 688 l 417 1069 z "},"»":{"ha":726,"x_min":88,"x_max":685,"o":"m 88 179 l 294 444 l 88 721 l 165 778 l 418 444 l 165 122 l 88 179 m 354 179 l 561 444 l 354 721 l 432 778 l 685 444 l 432 122 l 354 179 z "},"…":{"ha":1389,"x_min":150,"x_max":1239,"o":"m 638 115 q 649 127 638 115 q 694 139 661 139 q 751 115 728 139 q 775 58 775 90 q 751 1 775 25 q 694 -22 728 -22 q 638 1 661 -22 q 614 58 614 25 q 638 115 614 90 m 1101 115 q 1113 127 1101 115 q 1158 139 1125 139 q 1215 115 1192 139 q 1239 58 1239 90 q 1215 1 1239 25 q 1158 -22 1192 -22 q 1101 1 1125 -22 q 1078 58 1078 25 q 1101 115 1078 90 m 174 115 q 185 127 174 115 q 231 139 197 139 q 288 115 264 139 q 311 58 311 90 q 288 1 311 25 q 231 -22 264 -22 q 174 1 197 -22 q 150 58 150 25 q 174 115 150 90 z "},"‰":{"ha":1542,"x_min":31,"x_max":1513,"o":"m 103 999 q 139 1034 103 999 q 275 1069 175 1069 q 447 999 375 1069 q 519 831 519 929 q 447 663 519 732 q 275 593 374 593 q 103 663 176 593 q 31 831 31 732 q 103 999 31 929 m 388 940 q 364 963 388 940 q 275 986 340 986 q 162 940 210 986 q 114 831 114 894 q 162 722 114 768 q 275 676 210 676 q 388 722 340 676 q 436 831 436 768 q 388 940 436 894 m 774 1069 l 836 1033 l 225 -22 l 161 13 l 774 1069 m 551 384 q 588 419 551 384 q 724 454 624 454 q 896 384 824 454 q 968 215 968 314 q 895 47 968 117 q 724 -22 822 -22 q 552 47 625 -22 q 479 215 479 117 q 551 384 479 314 m 837 325 q 813 348 837 325 q 724 371 789 371 q 610 325 658 371 q 563 215 563 279 q 610 107 563 153 q 724 61 658 61 q 837 107 789 61 q 885 215 885 153 q 837 325 885 279 m 1096 384 q 1132 419 1096 384 q 1268 454 1168 454 q 1440 384 1368 454 q 1513 215 1513 314 q 1440 47 1513 117 q 1268 -22 1367 -22 q 1097 47 1169 -22 q 1024 215 1024 117 q 1096 384 1024 314 m 1381 325 q 1357 348 1381 325 q 1268 371 1333 371 q 1155 325 1203 371 q 1107 215 1107 279 q 1155 107 1107 153 q 1268 61 1203 61 q 1381 107 1333 61 q 1429 215 1429 153 q 1381 325 1429 279 z "},"¿":{"ha":629,"x_min":58,"x_max":557,"o":"m 211 218 l 85 218 q 150 374 81 307 q 310 442 219 442 q 468 377 403 442 q 533 219 533 313 q 488 88 533 131 q 358 15 442 46 q 331 5 351 13 q 301 -6 310 -3 q 275 -16 293 -8 q 250 -28 257 -24 q 229 -42 243 -33 q 210 -60 215 -51 q 197 -79 204 -68 q 188 -103 190 -90 q 185 -131 185 -115 q 221 -221 185 -187 q 313 -254 257 -254 q 397 -219 361 -254 q 432 -135 432 -183 q 424 -90 432 -121 l 554 -90 l 557 -136 q 486 -303 563 -235 q 308 -372 410 -372 q 131 -301 203 -372 q 58 -126 58 -231 q 133 46 58 -18 q 306 124 176 83 q 407 225 407 154 q 379 296 407 267 q 310 325 351 325 q 238 294 265 325 q 211 218 210 263 m 253 681 q 265 693 253 681 q 310 706 276 706 q 367 681 343 706 q 390 625 390 657 q 367 568 390 592 q 310 544 343 544 q 253 568 276 544 q 229 625 229 592 q 253 681 229 657 z "},"`":{"ha":500,"x_min":106,"x_max":394,"o":"m 106 958 l 221 1019 l 394 789 l 333 751 l 106 958 z "},"´":{"ha":500,"x_min":106,"x_max":394,"o":"m 279 1019 l 394 958 l 167 751 l 106 789 l 279 1019 z "},"ˆ":{"ha":653,"x_min":104,"x_max":549,"o":"m 104 818 l 325 1019 l 549 818 l 467 754 l 325 888 l 185 754 l 104 818 z "},"˜":{"ha":708,"x_min":89,"x_max":621,"o":"m 154 796 l 89 851 l 93 858 q 133 911 117 892 q 179 947 150 931 q 243 964 208 964 q 367 928 300 964 q 467 890 436 890 q 556 957 515 890 l 621 903 q 457 789 565 789 q 342 825 417 789 q 233 860 267 860 q 188 840 210 860 q 154 796 167 821 z "},"¯":{"ha":694,"x_min":97,"x_max":599,"o":"m 97 964 l 599 964 l 599 869 l 97 869 l 97 964 z "},"˘":{"ha":681,"x_min":99,"x_max":582,"o":"m 99 964 l 199 964 q 340 860 243 860 q 427 885 394 860 q 483 964 460 911 l 582 964 q 498 823 567 878 q 340 768 429 768 q 184 823 253 768 q 99 964 115 878 z "},"˙":{"ha":500,"x_min":167,"x_max":335,"o":"m 192 940 q 204 952 192 940 q 251 964 217 964 q 310 940 286 964 q 335 881 335 915 q 310 821 335 846 q 251 796 286 796 q 192 820 217 796 q 167 881 167 844 q 192 940 167 915 z "},"¨":{"ha":653,"x_min":96,"x_max":557,"o":"m 121 940 q 133 952 121 940 q 181 964 146 964 q 240 940 215 964 q 264 881 264 915 q 240 821 264 846 q 181 796 215 796 q 120 820 144 796 q 96 881 96 844 q 121 940 96 915 m 414 940 q 426 952 414 940 q 474 964 439 964 q 533 940 508 964 q 557 881 557 915 q 533 821 557 846 q 474 796 508 796 q 414 820 439 796 q 389 881 389 844 q 414 940 389 915 z "},"˚":{"ha":500,"x_min":125,"x_max":376,"o":"m 250 1019 q 340 983 303 1019 q 376 893 376 946 q 340 804 376 840 q 250 768 303 768 q 161 805 197 768 q 125 893 125 842 q 162 983 125 946 q 250 1019 199 1019 m 250 831 q 295 849 276 831 q 314 893 314 867 q 295 938 314 919 q 250 957 276 957 q 206 938 225 957 q 188 893 188 919 q 206 849 188 867 q 250 831 225 831 z "},"¸":{"ha":458,"x_min":119,"x_max":339,"o":"m 339 -64 l 193 -251 l 119 -214 l 240 -24 l 339 -64 z "},"˝":{"ha":653,"x_min":53,"x_max":600,"o":"m 485 1007 l 600 946 l 372 739 l 311 776 l 485 1007 m 226 1019 l 342 958 l 114 751 l 53 789 l 226 1019 z "},"˛":{"ha":472,"x_min":117,"x_max":356,"o":"m 229 -22 l 293 -22 l 293 -25 q 208 -143 208 -82 q 286 -208 208 -208 q 356 -190 328 -208 l 346 -271 q 257 -294 308 -294 q 159 -264 201 -294 q 117 -181 117 -233 q 229 -22 117 -90 z "},"ˇ":{"ha":656,"x_min":106,"x_max":550,"o":"m 106 956 l 186 1019 l 326 886 l 468 1019 l 550 956 l 326 754 l 106 956 z "},"—":{"ha":1389,"x_min":0,"x_max":1389,"o":"m 0 497 l 1389 497 l 1389 393 l 0 393 l 0 497 z "},"Æ":{"ha":1385,"x_min":0,"x_max":1418,"o":"m 739 263 l 263 263 l 143 0 l 0 0 l 503 1047 l 961 1047 l 1014 928 l 585 928 l 711 635 l 1129 635 l 1185 515 l 765 515 l 933 119 l 1365 119 l 1418 0 l 854 0 l 739 263 m 690 382 l 510 788 l 318 382 l 690 382 z "},"ª":{"ha":464,"x_min":17,"x_max":447,"o":"m 232 721 q 333 762 296 721 q 369 863 369 803 q 333 963 369 922 q 232 1003 296 1003 q 135 961 172 1003 q 99 863 99 919 q 135 763 99 804 q 232 721 171 721 m 447 1057 l 447 668 l 365 668 l 365 728 l 363 728 q 219 654 308 654 q 72 715 126 654 q 17 865 17 776 q 72 1009 17 949 q 217 1069 128 1069 q 364 993 306 1069 l 363 993 l 365 993 l 365 1057 l 447 1057 m 447 511 l 17 511 l 17 578 l 447 578 l 447 511 z "},"Ł":{"ha":535,"x_min":-12,"x_max":549,"o":"m 231 1047 l 231 653 l 394 768 l 394 635 l 231 525 l 231 119 l 549 119 l 549 0 l 100 0 l 100 444 l -12 364 l -12 499 l 100 574 l 100 1047 l 231 1047 z "},"Ø":{"ha":1150,"x_min":18,"x_max":1132,"o":"m 1132 1013 l 993 874 q 1124 524 1124 711 q 964 135 1124 292 q 575 -22 804 -22 q 214 110 382 -22 l 75 -29 l 18 29 l 156 167 q 26 524 26 310 q 188 909 26 749 q 575 1069 350 1069 q 770 1033 674 1069 q 938 931 867 997 l 1076 1069 l 1132 1013 m 247 251 l 847 846 q 575 947 739 950 q 276 824 394 947 q 157 524 157 700 q 247 251 157 369 m 901 786 l 310 197 q 575 100 411 100 q 869 223 746 100 q 993 524 993 346 q 901 786 993 669 z "},"Œ":{"ha":1588,"x_min":26,"x_max":1546,"o":"m 997 0 l 997 175 l 994 175 q 813 28 924 81 q 575 -22 703 -24 q 186 135 346 -22 q 26 524 26 292 q 188 909 26 749 q 575 1069 350 1069 q 814 1013 700 1065 q 994 864 928 960 l 997 864 l 997 1047 l 1546 1047 l 1546 928 l 1115 928 l 1115 635 l 1533 635 l 1533 515 l 1115 515 l 1115 119 l 1546 119 l 1546 0 l 997 0 m 281 223 q 342 161 281 223 q 575 100 404 100 q 869 223 746 100 q 993 524 993 346 q 874 824 993 700 q 575 947 756 947 q 276 824 394 947 q 157 524 157 700 q 281 223 157 346 z "},"º":{"ha":450,"x_min":0,"x_max":451,"o":"m 65 1010 q 98 1040 65 1010 q 225 1069 131 1069 q 385 1010 319 1069 q 451 861 451 950 q 385 714 451 774 q 225 654 319 654 q 65 714 131 654 q 0 861 0 774 q 65 1010 0 950 m 327 958 q 306 977 327 958 q 225 997 285 997 q 124 958 165 997 q 82 861 82 918 q 124 767 82 807 q 225 726 165 726 q 327 767 285 726 q 369 861 369 807 q 327 958 369 918 m 451 511 l 0 511 l 0 578 l 451 578 l 451 511 z "},"æ":{"ha":1121,"x_min":36,"x_max":1100,"o":"m 614 399 l 978 399 q 919 517 967 474 q 799 561 872 561 q 676 515 726 561 q 614 399 625 469 m 307 303 q 201 274 250 303 q 153 193 153 246 q 203 115 153 140 q 311 89 253 89 q 422 116 371 89 q 472 197 472 143 q 419 276 472 250 q 307 303 367 303 m 1100 304 l 604 304 q 660 153 606 217 q 800 89 714 89 q 912 120 868 89 q 994 215 956 151 l 1100 156 q 974 25 1054 72 q 799 -22 894 -22 q 549 99 653 -22 q 442 9 510 40 q 300 -22 375 -22 q 115 33 194 -22 q 36 190 36 88 q 107 350 36 292 q 282 408 178 408 q 479 349 407 408 l 479 393 q 308 561 479 561 q 131 540 196 561 l 131 651 q 326 669 222 669 q 456 642 393 669 q 549 563 519 615 q 796 669 635 669 q 1022 573 944 669 q 1100 324 1100 476 l 1100 304 z "},"ı":{"ha":353,"x_min":114,"x_max":239,"o":"m 239 650 l 239 0 l 114 0 l 114 650 l 239 650 z "},"ł":{"ha":354,"x_min":11,"x_max":363,"o":"m 249 1206 l 249 767 l 363 856 l 363 725 l 249 640 l 249 0 l 124 0 l 124 572 l 11 488 l 11 617 l 124 696 l 124 1206 l 249 1206 z "},"ø":{"ha":750,"x_min":21,"x_max":731,"o":"m 731 638 l 640 549 q 722 324 722 439 q 622 78 722 178 q 375 -22 521 -22 q 149 58 246 -22 l 64 -31 l 21 13 l 106 99 q 28 324 28 207 q 128 569 28 469 q 375 669 229 669 q 596 589 503 669 l 688 682 l 731 638 m 197 186 l 507 504 q 375 550 449 550 q 218 483 283 550 q 153 324 153 417 q 197 186 153 251 m 549 458 l 240 142 q 375 97 294 97 q 532 165 467 97 q 597 324 597 232 q 549 458 597 403 z "},"œ":{"ha":1246,"x_min":28,"x_max":1225,"o":"m 735 399 l 1099 399 q 1040 517 1088 474 q 919 561 993 561 q 797 515 847 561 q 735 399 746 469 m 532 483 q 499 517 532 483 q 375 550 467 550 q 218 483 283 550 q 153 324 153 417 q 218 165 153 232 q 375 97 283 97 q 532 165 467 97 q 597 324 597 232 q 532 483 597 417 m 1225 304 l 729 304 q 785 153 731 217 q 925 89 839 89 q 1037 120 993 89 q 1119 215 1081 151 l 1225 156 q 1099 25 1179 72 q 924 -22 1019 -22 q 767 15 840 -24 q 653 121 693 53 q 532 15 607 53 q 375 -22 457 -24 q 128 78 229 -22 q 28 324 28 178 q 128 569 28 469 q 375 669 229 669 q 532 628 456 667 q 653 524 608 589 q 921 669 742 664 q 1147 573 1069 669 q 1225 324 1225 476 l 1225 304 z "},"ß":{"ha":806,"x_min":39,"x_max":788,"o":"m 392 -22 l 392 94 q 581 172 500 94 q 663 358 663 250 q 587 541 663 475 q 392 615 511 607 l 392 738 q 525 792 471 736 q 579 929 579 849 q 526 1056 579 1006 q 399 1106 474 1106 q 331 1093 361 1106 q 283 1065 301 1081 q 251 1017 264 1049 q 233 963 239 985 q 223 899 226 942 q 219 838 219 856 q 219 776 219 821 l 219 0 l 94 0 l 94 536 l 39 536 l 39 653 l 94 653 l 94 858 q 403 1222 94 1222 q 618 1138 532 1222 q 704 922 704 1053 q 571 690 704 768 q 729 563 671 658 q 788 358 788 468 q 670 83 788 196 q 392 -22 553 -29 z "},"Á":{"ha":976,"x_min":-11,"x_max":989,"o":"m 729 263 l 249 263 l 129 0 l -11 0 l 489 1092 l 989 0 l 849 0 l 729 263 m 675 382 l 489 806 l 303 382 l 675 382 m 518 1417 l 633 1356 l 406 1149 l 344 1186 l 518 1417 z "},"Â":{"ha":976,"x_min":-11,"x_max":989,"o":"m 729 263 l 249 263 l 129 0 l -11 0 l 489 1092 l 989 0 l 849 0 l 729 263 m 675 382 l 489 806 l 303 382 l 675 382 m 267 1215 l 488 1417 l 711 1215 l 629 1151 l 488 1285 l 347 1151 l 267 1215 z "},"Ä":{"ha":976,"x_min":-11,"x_max":989,"o":"m 729 263 l 249 263 l 129 0 l -11 0 l 489 1092 l 989 0 l 849 0 l 729 263 m 675 382 l 489 806 l 303 382 l 675 382 m 283 1337 q 296 1349 283 1337 q 343 1361 308 1361 q 402 1337 378 1361 q 426 1278 426 1313 q 402 1218 426 1243 q 343 1193 378 1193 q 283 1217 308 1193 q 258 1278 258 1242 q 283 1337 258 1313 m 576 1337 q 589 1349 576 1337 q 636 1361 601 1361 q 695 1337 671 1361 q 719 1278 719 1313 q 695 1218 719 1243 q 636 1193 671 1193 q 576 1217 600 1193 q 551 1278 551 1242 q 576 1337 551 1313 z "},"À":{"ha":976,"x_min":-11,"x_max":989,"o":"m 729 263 l 249 263 l 129 0 l -11 0 l 489 1092 l 989 0 l 849 0 l 729 263 m 675 382 l 489 806 l 303 382 l 675 382 m 344 1356 l 460 1417 l 633 1186 l 572 1149 l 344 1356 z "},"Å":{"ha":976,"x_min":-11,"x_max":989,"o":"m 729 263 l 249 263 l 129 0 l -11 0 l 489 1092 l 989 0 l 849 0 l 729 263 m 675 382 l 489 806 l 303 382 l 675 382 m 489 1417 q 578 1380 542 1417 q 615 1290 615 1343 q 578 1201 615 1238 q 489 1165 542 1165 q 400 1202 436 1165 q 364 1290 364 1239 q 401 1380 364 1343 q 489 1417 438 1417 m 489 1228 q 534 1246 515 1228 q 553 1290 553 1264 q 534 1335 553 1317 q 489 1354 515 1354 q 445 1335 464 1354 q 426 1290 426 1317 q 445 1246 426 1264 q 489 1228 464 1228 z "},"Ã":{"ha":976,"x_min":-11,"x_max":989,"o":"m 729 263 l 249 263 l 129 0 l -11 0 l 489 1092 l 989 0 l 849 0 l 729 263 m 675 382 l 489 806 l 303 382 l 675 382 m 289 1193 l 224 1249 l 228 1256 q 268 1308 251 1289 q 314 1344 285 1328 q 378 1361 343 1361 q 501 1325 435 1361 q 601 1288 571 1288 q 690 1354 650 1288 l 756 1300 q 592 1186 700 1186 q 476 1222 551 1186 q 368 1257 401 1257 q 323 1238 344 1257 q 289 1193 301 1218 z "},"Ç":{"ha":918,"x_min":42,"x_max":863,"o":"m 863 999 l 863 847 q 586 950 747 950 q 292 824 413 950 q 172 522 172 699 q 291 223 172 349 q 583 97 410 97 q 863 206 742 97 l 863 51 q 588 -22 738 -22 q 202 135 363 -22 q 42 518 42 292 q 204 910 42 750 q 599 1069 367 1069 q 863 999 747 1069 m 569 -64 l 424 -251 l 350 -214 l 471 -24 l 569 -64 z "},"É":{"ha":724,"x_min":100,"x_max":663,"o":"m 100 0 l 100 1047 l 663 1047 l 663 928 l 231 928 l 231 635 l 650 635 l 650 515 l 231 515 l 231 119 l 663 119 l 663 0 l 100 0 m 408 1417 l 524 1356 l 296 1149 l 235 1186 l 408 1417 z "},"Ê":{"ha":724,"x_min":100,"x_max":663,"o":"m 100 0 l 100 1047 l 663 1047 l 663 928 l 231 928 l 231 635 l 650 635 l 650 515 l 231 515 l 231 119 l 663 119 l 663 0 l 100 0 m 140 1215 l 361 1417 l 585 1215 l 503 1151 l 361 1285 l 221 1151 l 140 1215 z "},"Ë":{"ha":724,"x_min":100,"x_max":663,"o":"m 100 0 l 100 1047 l 663 1047 l 663 928 l 231 928 l 231 635 l 650 635 l 650 515 l 231 515 l 231 119 l 663 119 l 663 0 l 100 0 m 174 1337 q 186 1349 174 1337 q 233 1361 199 1361 q 292 1337 268 1361 q 317 1278 317 1313 q 292 1218 317 1243 q 233 1193 268 1193 q 173 1217 197 1193 q 149 1278 149 1242 q 174 1337 149 1313 m 467 1337 q 479 1349 467 1337 q 526 1361 492 1361 q 585 1337 561 1361 q 610 1278 610 1313 q 585 1218 610 1243 q 526 1193 561 1193 q 467 1217 492 1193 q 442 1278 442 1242 q 467 1337 442 1313 z "},"È":{"ha":724,"x_min":100,"x_max":663,"o":"m 100 0 l 100 1047 l 663 1047 l 663 928 l 231 928 l 231 635 l 650 635 l 650 515 l 231 515 l 231 119 l 663 119 l 663 0 l 100 0 m 218 1356 l 333 1417 l 507 1186 l 446 1149 l 218 1356 z "},"Ð":{"ha":924,"x_min":0,"x_max":893,"o":"m 89 625 l 89 1047 l 306 1047 q 726 913 560 1047 q 893 529 893 779 q 728 136 893 272 q 301 0 563 0 l 89 0 l 89 503 l 0 503 l 0 625 l 89 625 m 219 928 l 219 625 l 406 625 l 406 503 l 219 503 l 219 119 l 265 119 q 457 140 371 119 q 613 207 543 161 q 723 333 683 253 q 763 524 763 414 q 723 715 763 635 q 613 841 683 796 q 456 907 542 886 q 265 928 371 928 l 219 928 z "},"Í":{"ha":322,"x_min":17,"x_max":306,"o":"m 226 1047 l 226 0 l 96 0 l 96 1047 l 226 1047 m 190 1417 l 306 1356 l 78 1149 l 17 1186 l 190 1417 z "},"Î":{"ha":322,"x_min":-61,"x_max":383,"o":"m 226 1047 l 226 0 l 96 0 l 96 1047 l 226 1047 m -61 1215 l 160 1417 l 383 1215 l 301 1151 l 160 1285 l 19 1151 l -61 1215 z "},"Ï":{"ha":322,"x_min":-69,"x_max":392,"o":"m 226 1047 l 226 0 l 96 0 l 96 1047 l 226 1047 m -44 1337 q -32 1349 -44 1337 q 15 1361 -19 1361 q 74 1337 50 1361 q 99 1278 99 1313 q 74 1218 99 1243 q 15 1193 50 1193 q -44 1217 -19 1193 q -69 1278 -69 1242 q -44 1337 -69 1313 m 249 1337 q 261 1349 249 1337 q 308 1361 274 1361 q 367 1337 343 1361 q 392 1278 392 1313 q 367 1218 392 1243 q 308 1193 343 1193 q 248 1217 272 1193 q 224 1278 224 1242 q 249 1337 224 1313 z "},"Ì":{"ha":322,"x_min":17,"x_max":306,"o":"m 226 1047 l 226 0 l 96 0 l 96 1047 l 226 1047 m 17 1356 l 132 1417 l 306 1186 l 244 1149 l 17 1356 z "},"Ñ":{"ha":1090,"x_min":88,"x_max":1004,"o":"m 88 0 l 88 1097 l 874 274 l 874 1047 l 1004 1047 l 1004 -43 l 218 781 l 218 0 l 88 0 m 346 1193 l 281 1249 l 285 1256 q 325 1308 308 1289 q 371 1344 342 1328 q 435 1361 400 1361 q 558 1325 492 1361 q 658 1288 628 1288 q 747 1354 707 1288 l 813 1300 q 649 1186 757 1186 q 533 1222 608 1186 q 425 1257 458 1257 q 380 1238 401 1257 q 346 1193 358 1218 z "},"Ó":{"ha":1150,"x_min":26,"x_max":1124,"o":"m 188 909 q 269 989 188 909 q 575 1069 350 1069 q 962 909 800 1069 q 1124 524 1124 749 q 964 135 1124 292 q 575 -22 804 -22 q 186 135 346 -22 q 26 524 26 292 q 188 909 26 749 m 281 223 q 342 161 281 223 q 575 100 404 100 q 869 223 746 100 q 993 524 993 346 q 874 824 993 700 q 575 947 756 947 q 276 824 394 947 q 157 524 157 700 q 281 223 157 346 m 604 1417 l 719 1356 l 492 1149 l 431 1186 l 604 1417 z "},"Ô":{"ha":1150,"x_min":26,"x_max":1124,"o":"m 188 909 q 269 989 188 909 q 575 1069 350 1069 q 962 909 800 1069 q 1124 524 1124 749 q 964 135 1124 292 q 575 -22 804 -22 q 186 135 346 -22 q 26 524 26 292 q 188 909 26 749 m 281 223 q 342 161 281 223 q 575 100 404 100 q 869 223 746 100 q 993 524 993 346 q 874 824 993 700 q 575 947 756 947 q 276 824 394 947 q 157 524 157 700 q 281 223 157 346 m 353 1215 l 574 1417 l 797 1215 l 715 1151 l 574 1285 l 433 1151 l 353 1215 z "},"Ö":{"ha":1150,"x_min":26,"x_max":1124,"o":"m 188 909 q 269 989 188 909 q 575 1069 350 1069 q 962 909 800 1069 q 1124 524 1124 749 q 964 135 1124 292 q 575 -22 804 -22 q 186 135 346 -22 q 26 524 26 292 q 188 909 26 749 m 281 223 q 342 161 281 223 q 575 100 404 100 q 869 223 746 100 q 993 524 993 346 q 874 824 993 700 q 575 947 756 947 q 276 824 394 947 q 157 524 157 700 q 281 223 157 346 m 369 1337 q 382 1349 369 1337 q 429 1361 394 1361 q 488 1337 464 1361 q 513 1278 513 1313 q 488 1218 513 1243 q 429 1193 464 1193 q 369 1217 394 1193 q 344 1278 344 1242 q 369 1337 344 1313 m 663 1337 q 675 1349 663 1337 q 722 1361 688 1361 q 781 1337 757 1361 q 806 1278 806 1313 q 781 1218 806 1243 q 722 1193 757 1193 q 662 1217 686 1193 q 638 1278 638 1242 q 663 1337 638 1313 z "},"Ò":{"ha":1150,"x_min":26,"x_max":1124,"o":"m 188 909 q 269 989 188 909 q 575 1069 350 1069 q 962 909 800 1069 q 1124 524 1124 749 q 964 135 1124 292 q 575 -22 804 -22 q 186 135 346 -22 q 26 524 26 292 q 188 909 26 749 m 281 223 q 342 161 281 223 q 575 100 404 100 q 869 223 746 100 q 993 524 993 346 q 874 824 993 700 q 575 947 756 947 q 276 824 394 947 q 157 524 157 700 q 281 223 157 346 m 431 1356 l 546 1417 l 719 1186 l 658 1149 l 431 1356 z "},"Õ":{"ha":1150,"x_min":26,"x_max":1124,"o":"m 188 909 q 269 989 188 909 q 575 1069 350 1069 q 962 909 800 1069 q 1124 524 1124 749 q 964 135 1124 292 q 575 -22 804 -22 q 186 135 346 -22 q 26 524 26 292 q 188 909 26 749 m 281 223 q 342 161 281 223 q 575 100 404 100 q 869 223 746 100 q 993 524 993 346 q 874 824 993 700 q 575 947 756 947 q 276 824 394 947 q 157 524 157 700 q 281 223 157 346 m 375 1193 l 310 1249 l 314 1256 q 354 1308 338 1289 q 400 1344 371 1328 q 464 1361 429 1361 q 588 1325 521 1361 q 688 1288 657 1288 q 776 1354 736 1288 l 842 1300 q 678 1186 786 1186 q 563 1222 638 1186 q 454 1257 488 1257 q 409 1238 431 1257 q 375 1193 388 1218 z "},"Š":{"ha":746,"x_min":44,"x_max":703,"o":"m 669 911 l 565 849 q 397 947 507 947 q 276 906 331 947 q 222 799 222 864 q 368 649 222 704 l 443 619 q 635 499 568 571 q 703 304 703 426 q 606 70 703 163 q 368 -22 510 -22 q 151 60 242 -22 q 44 271 61 143 l 176 299 q 234 157 175 214 q 379 100 293 100 q 517 160 463 100 q 572 304 572 221 q 524 424 572 381 q 392 503 476 468 l 319 533 q 152 639 213 579 q 92 799 92 699 q 183 995 92 921 q 400 1069 275 1069 q 669 911 581 1069 m 151 1353 l 232 1417 l 372 1283 l 514 1417 l 596 1353 l 372 1151 l 151 1353 z "},"Þ":{"ha":688,"x_min":100,"x_max":672,"o":"m 231 244 l 231 0 l 100 0 l 100 1047 l 231 1047 l 231 853 l 250 853 q 577 777 482 853 q 672 550 672 701 q 570 319 672 394 q 306 244 468 244 l 231 244 m 231 736 l 231 361 l 272 361 q 373 368 329 361 q 460 394 417 375 q 526 453 503 413 q 550 553 550 493 q 525 650 550 611 q 454 706 500 689 q 365 730 408 724 q 265 736 322 736 l 231 736 z "},"Ú":{"ha":929,"x_min":82,"x_max":849,"o":"m 82 1047 l 213 1047 l 213 429 q 465 100 213 100 q 718 429 718 100 l 718 1047 l 849 1047 l 849 385 q 745 92 849 207 q 465 -22 642 -22 q 185 92 289 -22 q 82 385 82 207 l 82 1047 m 494 1417 l 610 1356 l 382 1149 l 321 1186 l 494 1417 z "},"Û":{"ha":929,"x_min":82,"x_max":849,"o":"m 82 1047 l 213 1047 l 213 429 q 465 100 213 100 q 718 429 718 100 l 718 1047 l 849 1047 l 849 385 q 745 92 849 207 q 465 -22 642 -22 q 185 92 289 -22 q 82 385 82 207 l 82 1047 m 243 1215 l 464 1417 l 688 1215 l 606 1151 l 464 1285 l 324 1151 l 243 1215 z "},"Ü":{"ha":929,"x_min":82,"x_max":849,"o":"m 82 1047 l 213 1047 l 213 429 q 465 100 213 100 q 718 429 718 100 l 718 1047 l 849 1047 l 849 385 q 745 92 849 207 q 465 -22 642 -22 q 185 92 289 -22 q 82 385 82 207 l 82 1047 m 260 1337 q 272 1349 260 1337 q 319 1361 285 1361 q 378 1337 354 1361 q 403 1278 403 1313 q 378 1218 403 1243 q 319 1193 354 1193 q 259 1217 283 1193 q 235 1278 235 1242 q 260 1337 235 1313 m 553 1337 q 565 1349 553 1337 q 613 1361 578 1361 q 672 1337 647 1361 q 696 1278 696 1313 q 672 1218 696 1243 q 613 1193 647 1193 q 553 1217 578 1193 q 528 1278 528 1242 q 553 1337 528 1313 z "},"Ù":{"ha":929,"x_min":82,"x_max":849,"o":"m 82 1047 l 213 1047 l 213 429 q 465 100 213 100 q 718 429 718 100 l 718 1047 l 849 1047 l 849 385 q 745 92 849 207 q 465 -22 642 -22 q 185 92 289 -22 q 82 385 82 207 l 82 1047 m 304 1356 l 419 1417 l 593 1186 l 532 1149 l 304 1356 z "},"Ý":{"ha":796,"x_min":-8,"x_max":806,"o":"m 333 456 l -8 1047 l 142 1047 l 399 600 l 656 1047 l 806 1047 l 464 456 l 464 0 l 333 0 l 333 456 m 483 1417 l 599 1356 l 371 1149 l 310 1186 l 483 1417 z "},"Ÿ":{"ha":796,"x_min":-8,"x_max":806,"o":"m 333 456 l -8 1047 l 142 1047 l 399 600 l 656 1047 l 806 1047 l 464 456 l 464 0 l 333 0 l 333 456 m 193 1337 q 206 1349 193 1337 q 253 1361 218 1361 q 312 1337 288 1361 q 336 1278 336 1313 q 312 1218 336 1243 q 253 1193 288 1193 q 192 1217 217 1193 q 168 1278 168 1242 q 193 1337 168 1313 m 486 1337 q 499 1349 486 1337 q 546 1361 511 1361 q 605 1337 581 1361 q 629 1278 629 1313 q 605 1218 629 1243 q 546 1193 581 1193 q 486 1217 511 1193 q 461 1278 461 1242 q 486 1337 461 1313 z "},"Ž":{"ha":767,"x_min":13,"x_max":756,"o":"m 225 119 l 756 119 l 756 0 l 13 0 l 543 928 l 88 928 l 88 1047 l 756 1047 l 225 119 m 161 1353 l 242 1417 l 382 1283 l 524 1417 l 606 1353 l 382 1151 l 161 1353 z "},"á":{"ha":772,"x_min":36,"x_max":696,"o":"m 367 89 q 522 157 465 89 q 578 325 578 225 q 521 491 578 424 q 367 558 464 558 q 217 490 274 558 q 161 325 161 421 q 217 158 161 228 q 367 89 272 89 m 696 650 l 696 0 l 571 0 l 571 101 l 568 101 q 347 -22 485 -22 q 120 80 204 -22 q 36 329 36 182 q 121 569 36 468 q 343 669 206 669 q 568 542 483 669 l 571 542 l 571 650 l 696 650 m 415 1019 l 531 958 l 303 751 l 242 789 l 415 1019 z "},"â":{"ha":772,"x_min":36,"x_max":696,"o":"m 367 89 q 522 157 465 89 q 578 325 578 225 q 521 491 578 424 q 367 558 464 558 q 217 490 274 558 q 161 325 161 421 q 217 158 161 228 q 367 89 272 89 m 696 650 l 696 0 l 571 0 l 571 101 l 568 101 q 347 -22 485 -22 q 120 80 204 -22 q 36 329 36 182 q 121 569 36 468 q 343 669 206 669 q 568 542 483 669 l 571 542 l 571 650 l 696 650 m 164 818 l 385 1019 l 608 818 l 526 754 l 385 888 l 244 754 l 164 818 z "},"ä":{"ha":772,"x_min":36,"x_max":696,"o":"m 367 89 q 522 157 465 89 q 578 325 578 225 q 521 491 578 424 q 367 558 464 558 q 217 490 274 558 q 161 325 161 421 q 217 158 161 228 q 367 89 272 89 m 696 650 l 696 0 l 571 0 l 571 101 l 568 101 q 347 -22 485 -22 q 120 80 204 -22 q 36 329 36 182 q 121 569 36 468 q 343 669 206 669 q 568 542 483 669 l 571 542 l 571 650 l 696 650 m 181 940 q 193 952 181 940 q 240 964 206 964 q 299 940 275 964 q 324 881 324 915 q 299 821 324 846 q 240 796 275 796 q 181 820 206 796 q 156 881 156 844 q 181 940 156 915 m 474 940 q 486 952 474 940 q 533 964 499 964 q 592 940 568 964 q 617 881 617 915 q 592 821 617 846 q 533 796 568 796 q 473 820 497 796 q 449 881 449 844 q 474 940 449 915 z "},"à":{"ha":772,"x_min":36,"x_max":696,"o":"m 367 89 q 522 157 465 89 q 578 325 578 225 q 521 491 578 424 q 367 558 464 558 q 217 490 274 558 q 161 325 161 421 q 217 158 161 228 q 367 89 272 89 m 696 650 l 696 0 l 571 0 l 571 101 l 568 101 q 347 -22 485 -22 q 120 80 204 -22 q 36 329 36 182 q 121 569 36 468 q 343 669 206 669 q 568 542 483 669 l 571 542 l 571 650 l 696 650 m 242 958 l 357 1019 l 531 789 l 469 751 l 242 958 z "},"å":{"ha":772,"x_min":36,"x_max":696,"o":"m 367 89 q 522 157 465 89 q 578 325 578 225 q 521 491 578 424 q 367 558 464 558 q 217 490 274 558 q 161 325 161 421 q 217 158 161 228 q 367 89 272 89 m 696 650 l 696 0 l 571 0 l 571 101 l 568 101 q 347 -22 485 -22 q 120 80 204 -22 q 36 329 36 182 q 121 569 36 468 q 343 669 206 669 q 568 542 483 669 l 571 542 l 571 650 l 696 650 m 386 1019 q 476 983 439 1019 q 513 893 513 946 q 476 804 513 840 q 386 768 439 768 q 297 805 333 768 q 261 893 261 842 q 298 983 261 946 q 386 1019 335 1019 m 386 831 q 431 849 413 831 q 450 893 450 867 q 431 938 450 919 q 386 957 413 957 q 342 938 361 957 q 324 893 324 919 q 342 849 324 867 q 386 831 361 831 z "},"ã":{"ha":772,"x_min":36,"x_max":696,"o":"m 367 89 q 522 157 465 89 q 578 325 578 225 q 521 491 578 424 q 367 558 464 558 q 217 490 274 558 q 161 325 161 421 q 217 158 161 228 q 367 89 272 89 m 696 650 l 696 0 l 571 0 l 571 101 l 568 101 q 347 -22 485 -22 q 120 80 204 -22 q 36 329 36 182 q 121 569 36 468 q 343 669 206 669 q 568 542 483 669 l 571 542 l 571 650 l 696 650 m 186 796 l 121 851 l 125 858 q 165 911 149 892 q 211 947 182 931 q 275 964 240 964 q 399 928 332 964 q 499 890 468 890 q 588 957 547 890 l 653 903 q 489 789 597 789 q 374 825 449 789 q 265 860 299 860 q 220 840 242 860 q 186 796 199 821 z "},"¦":{"ha":792,"x_min":336,"x_max":456,"o":"m 456 482 l 456 0 l 336 0 l 336 482 l 456 482 m 456 1206 l 456 724 l 336 724 l 336 1206 l 456 1206 z "},"ç":{"ha":613,"x_min":36,"x_max":564,"o":"m 564 626 l 564 465 q 378 553 488 553 q 224 485 288 553 q 161 325 161 417 q 224 160 161 225 q 386 94 288 94 q 564 181 488 94 l 564 21 q 385 -22 483 -22 q 138 76 240 -22 q 36 319 36 175 q 138 569 36 469 q 392 669 240 669 q 564 626 490 669 m 417 -64 l 271 -251 l 197 -214 l 318 -24 l 417 -64 z "},"©":{"ha":1111,"x_min":8,"x_max":1103,"o":"m 944 137 q 864 57 944 137 q 556 -22 785 -22 q 167 137 326 -22 q 8 524 8 296 q 167 910 8 751 q 556 1069 326 1069 q 944 910 785 1069 q 1103 524 1103 751 q 944 137 1103 296 m 879 848 q 812 914 879 848 q 556 981 744 981 q 232 848 367 981 q 97 524 97 715 q 232 199 97 332 q 556 67 367 67 q 879 199 744 67 q 1014 524 1014 332 q 879 848 1014 715 m 833 636 l 749 636 q 690 724 736 693 q 575 754 644 754 q 416 688 469 754 q 363 531 363 622 q 419 367 363 431 q 578 303 476 303 q 749 426 719 303 l 833 426 q 748 272 821 331 q 578 214 675 214 q 358 304 442 214 q 274 528 274 394 q 356 755 274 667 q 576 843 438 843 q 745 788 675 843 q 833 636 815 732 z "},"°":{"ha":556,"x_min":69,"x_max":486,"o":"m 425 1008 q 456 978 425 1008 q 486 861 486 947 q 425 714 486 775 q 278 653 364 653 q 131 714 192 653 q 69 861 69 775 q 130 1008 68 947 q 278 1069 192 1069 q 425 1008 364 1069 m 276 1000 q 178 960 218 1000 q 139 861 138 919 q 178 762 139 801 q 278 722 218 722 q 376 762 336 722 q 417 861 417 801 q 376 960 417 919 q 276 1000 336 1000 z "},"÷":{"ha":803,"x_min":46,"x_max":757,"o":"m 46 296 l 46 415 l 757 415 l 757 296 l 46 296 m 340 147 q 353 159 340 147 q 401 172 365 172 q 463 147 438 172 q 488 85 488 121 q 463 25 488 50 q 401 0 438 0 q 340 25 365 0 q 315 85 315 50 q 340 147 315 121 m 340 685 q 353 698 340 685 q 401 711 365 711 q 463 685 438 711 q 488 624 488 660 q 463 564 488 589 q 401 539 438 539 q 340 564 365 539 q 315 624 315 589 q 340 685 315 660 z "},"é":{"ha":678,"x_min":36,"x_max":657,"o":"m 657 304 l 161 304 q 217 153 163 217 q 357 89 271 89 q 469 120 425 89 q 551 215 513 151 l 657 156 q 531 25 611 72 q 356 -22 451 -22 q 123 75 210 -22 q 36 319 36 172 q 118 572 36 475 q 353 669 200 669 q 579 573 501 669 q 657 324 657 476 l 657 304 m 168 399 l 532 399 q 474 517 521 474 q 353 561 426 561 q 230 515 281 561 q 168 399 179 469 m 368 1019 l 483 958 l 256 751 l 194 789 l 368 1019 z "},"ê":{"ha":678,"x_min":36,"x_max":657,"o":"m 657 304 l 161 304 q 217 153 163 217 q 357 89 271 89 q 469 120 425 89 q 551 215 513 151 l 657 156 q 531 25 611 72 q 356 -22 451 -22 q 123 75 210 -22 q 36 319 36 172 q 118 572 36 475 q 353 669 200 669 q 579 573 501 669 q 657 324 657 476 l 657 304 m 168 399 l 532 399 q 474 517 521 474 q 353 561 426 561 q 230 515 281 561 q 168 399 179 469 m 117 818 l 338 1019 l 561 818 l 479 754 l 338 888 l 197 754 l 117 818 z "},"ë":{"ha":678,"x_min":36,"x_max":657,"o":"m 657 304 l 161 304 q 217 153 163 217 q 357 89 271 89 q 469 120 425 89 q 551 215 513 151 l 657 156 q 531 25 611 72 q 356 -22 451 -22 q 123 75 210 -22 q 36 319 36 172 q 118 572 36 475 q 353 669 200 669 q 579 573 501 669 q 657 324 657 476 l 657 304 m 168 399 l 532 399 q 474 517 521 474 q 353 561 426 561 q 230 515 281 561 q 168 399 179 469 m 133 940 q 146 952 133 940 q 193 964 158 964 q 252 940 228 964 q 276 881 276 915 q 252 821 276 846 q 193 796 228 796 q 133 820 158 796 q 108 881 108 844 q 133 940 108 915 m 426 940 q 439 952 426 940 q 486 964 451 964 q 545 940 521 964 q 569 881 569 915 q 545 821 569 846 q 486 796 521 796 q 426 820 450 796 q 401 881 401 844 q 426 940 401 915 z "},"è":{"ha":678,"x_min":36,"x_max":657,"o":"m 657 304 l 161 304 q 217 153 163 217 q 357 89 271 89 q 469 120 425 89 q 551 215 513 151 l 657 156 q 531 25 611 72 q 356 -22 451 -22 q 123 75 210 -22 q 36 319 36 172 q 118 572 36 475 q 353 669 200 669 q 579 573 501 669 q 657 324 657 476 l 657 304 m 168 399 l 532 399 q 474 517 521 474 q 353 561 426 561 q 230 515 281 561 q 168 399 179 469 m 194 958 l 310 1019 l 483 789 l 422 751 l 194 958 z "},"ð":{"ha":750,"x_min":-15,"x_max":722,"o":"m 532 483 q 499 517 532 483 q 375 550 467 550 q 218 483 283 550 q 153 324 153 417 q 218 165 153 232 q 375 97 283 97 q 532 165 467 97 q 597 324 597 232 q 532 483 597 417 m 64 1144 l 172 1206 l 313 1051 l 515 1167 l 583 1092 l 382 975 q 611 650 486 853 q 722 324 722 469 q 623 74 722 169 q 375 -22 524 -22 q 128 78 229 -22 q 28 324 28 178 q 128 569 28 469 q 375 669 229 669 q 467 650 422 669 l 469 653 q 367 801 429 718 q 274 914 306 885 l 54 788 l -15 864 l 204 990 l 64 1144 z "},"í":{"ha":353,"x_min":32,"x_max":321,"o":"m 239 650 l 239 0 l 114 0 l 114 650 l 239 650 m 206 1019 l 321 958 l 93 751 l 32 789 l 206 1019 z "},"î":{"ha":353,"x_min":-46,"x_max":399,"o":"m 239 650 l 239 0 l 114 0 l 114 650 l 239 650 m -46 818 l 175 1019 l 399 818 l 317 754 l 175 888 l 35 754 l -46 818 z "},"ï":{"ha":353,"x_min":-54,"x_max":407,"o":"m 239 650 l 239 0 l 114 0 l 114 650 l 239 650 m -29 940 q -17 952 -29 940 q 31 964 -4 964 q 90 940 65 964 q 114 881 114 915 q 90 821 114 846 q 31 796 65 796 q -30 820 -6 796 q -54 881 -54 844 q -29 940 -54 915 m 264 940 q 276 952 264 940 q 324 964 289 964 q 383 940 358 964 q 407 881 407 915 q 383 821 407 846 q 324 796 358 796 q 264 820 289 796 q 239 881 239 844 q 264 940 239 915 z "},"ì":{"ha":353,"x_min":32,"x_max":321,"o":"m 239 650 l 239 0 l 114 0 l 114 650 l 239 650 m 32 958 l 147 1019 l 321 789 l 260 751 l 32 958 z "},"¬":{"ha":803,"x_min":46,"x_max":757,"o":"m 638 160 l 638 415 l 46 415 l 46 535 l 757 535 l 757 160 l 638 160 z "},"−":{"ha":803,"x_min":46,"x_max":757,"o":"m 46 296 l 46 415 l 757 415 l 757 296 l 46 296 z "},"μ":{"ha":711,"x_min":81,"x_max":631,"o":"m 81 650 l 206 650 l 206 290 q 238 147 206 200 q 356 94 271 94 q 473 147 440 94 q 506 290 506 200 l 506 650 l 631 650 l 631 276 q 563 58 631 138 q 356 -22 494 -22 q 206 39 278 -22 l 206 -372 l 81 -372 l 81 650 z "},"×":{"ha":803,"x_min":46,"x_max":757,"o":"m 46 626 l 129 711 l 401 440 l 674 711 l 757 626 l 486 356 l 757 85 l 674 0 l 401 271 l 129 0 l 46 85 l 317 356 l 46 626 z "},"ñ":{"ha":726,"x_min":86,"x_max":640,"o":"m 211 650 l 211 563 l 214 563 q 295 642 242 614 q 410 669 349 669 q 589 594 538 669 q 640 388 640 519 l 640 0 l 515 0 l 515 372 q 488 513 515 468 q 372 558 461 558 q 304 549 333 558 q 258 517 275 539 q 231 474 242 494 q 217 417 221 454 q 212 360 213 381 q 211 299 211 339 l 211 0 l 86 0 l 86 650 l 211 650 m 164 796 l 99 851 l 103 858 q 143 911 126 892 q 189 947 160 931 q 253 964 218 964 q 376 928 310 964 q 476 890 446 890 q 565 957 525 890 l 631 903 q 467 789 575 789 q 351 825 426 789 q 243 860 276 860 q 198 840 219 860 q 164 796 176 821 z "},"ó":{"ha":750,"x_min":28,"x_max":722,"o":"m 128 569 q 179 619 128 569 q 375 669 229 669 q 622 569 521 669 q 722 324 722 469 q 622 78 722 178 q 375 -22 521 -22 q 128 78 229 -22 q 28 324 28 178 q 128 569 28 469 m 532 483 q 499 517 532 483 q 375 550 467 550 q 218 483 283 550 q 153 324 153 417 q 218 165 153 232 q 375 97 283 97 q 532 165 467 97 q 597 324 597 232 q 532 483 597 417 m 404 1019 l 519 958 l 292 751 l 231 789 l 404 1019 z "},"ô":{"ha":750,"x_min":28,"x_max":722,"o":"m 128 569 q 179 619 128 569 q 375 669 229 669 q 622 569 521 669 q 722 324 722 469 q 622 78 722 178 q 375 -22 521 -22 q 128 78 229 -22 q 28 324 28 178 q 128 569 28 469 m 532 483 q 499 517 532 483 q 375 550 467 550 q 218 483 283 550 q 153 324 153 417 q 218 165 153 232 q 375 97 283 97 q 532 165 467 97 q 597 324 597 232 q 532 483 597 417 m 153 818 l 374 1019 l 597 818 l 515 754 l 374 888 l 233 754 l 153 818 z "},"ö":{"ha":750,"x_min":28,"x_max":722,"o":"m 128 569 q 179 619 128 569 q 375 669 229 669 q 622 569 521 669 q 722 324 722 469 q 622 78 722 178 q 375 -22 521 -22 q 128 78 229 -22 q 28 324 28 178 q 128 569 28 469 m 532 483 q 499 517 532 483 q 375 550 467 550 q 218 483 283 550 q 153 324 153 417 q 218 165 153 232 q 375 97 283 97 q 532 165 467 97 q 597 324 597 232 q 532 483 597 417 m 169 940 q 182 952 169 940 q 229 964 194 964 q 288 940 264 964 q 313 881 313 915 q 288 821 313 846 q 229 796 264 796 q 169 820 194 796 q 144 881 144 844 q 169 940 144 915 m 463 940 q 475 952 463 940 q 522 964 488 964 q 581 940 557 964 q 606 881 606 915 q 581 821 606 846 q 522 796 557 796 q 462 820 486 796 q 438 881 438 844 q 463 940 438 915 z "},"ò":{"ha":750,"x_min":28,"x_max":722,"o":"m 128 569 q 179 619 128 569 q 375 669 229 669 q 622 569 521 669 q 722 324 722 469 q 622 78 722 178 q 375 -22 521 -22 q 128 78 229 -22 q 28 324 28 178 q 128 569 28 469 m 532 483 q 499 517 532 483 q 375 550 467 550 q 218 483 283 550 q 153 324 153 417 q 218 165 153 232 q 375 97 283 97 q 532 165 467 97 q 597 324 597 232 q 532 483 597 417 m 231 958 l 346 1019 l 519 789 l 458 751 l 231 958 z "},"½":{"ha":1204,"x_min":56,"x_max":1149,"o":"m 175 419 l 175 967 l 56 967 l 103 1047 l 264 1047 l 264 419 l 175 419 m 888 81 l 1149 81 l 1149 0 l 708 0 l 1007 338 q 1060 450 1060 399 q 1019 528 1060 496 q 933 561 979 561 q 848 532 882 561 q 811 456 814 503 l 718 456 q 785 591 728 540 q 933 642 842 642 q 1085 588 1021 642 q 1149 453 1149 533 q 1103 324 1149 376 l 888 81 m 804 1069 l 875 1033 l 264 -22 l 193 17 l 804 1069 z "},"¼":{"ha":1204,"x_min":56,"x_max":1149,"o":"m 175 967 l 56 967 l 103 1047 l 264 1047 l 264 419 l 175 419 l 175 967 m 1081 172 l 1149 172 l 1149 92 l 1081 92 l 1081 0 l 992 0 l 992 92 l 654 92 l 1081 657 l 1081 172 m 992 172 l 992 400 l 988 400 l 817 172 l 992 172 m 876 1069 l 947 1033 l 336 -22 l 265 17 l 876 1069 z "},"¹":{"ha":481,"x_min":90,"x_max":299,"o":"m 210 967 l 90 967 l 138 1047 l 299 1047 l 299 419 l 210 419 l 210 967 z "},"õ":{"ha":750,"x_min":28,"x_max":722,"o":"m 128 569 q 179 619 128 569 q 375 669 229 669 q 622 569 521 669 q 722 324 722 469 q 622 78 722 178 q 375 -22 521 -22 q 128 78 229 -22 q 28 324 28 178 q 128 569 28 469 m 532 483 q 499 517 532 483 q 375 550 467 550 q 218 483 283 550 q 153 324 153 417 q 218 165 153 232 q 375 97 283 97 q 532 165 467 97 q 597 324 597 232 q 532 483 597 417 m 175 796 l 110 851 l 114 858 q 154 911 138 892 q 200 947 171 931 q 264 964 229 964 q 388 928 321 964 q 488 890 457 890 q 576 957 536 890 l 642 903 q 478 789 586 789 q 363 825 438 789 q 254 860 288 860 q 209 840 231 860 q 175 796 188 821 z "},"±":{"ha":803,"x_min":46,"x_max":757,"o":"m 46 0 l 46 119 l 757 119 l 757 0 l 46 0 m 342 781 l 461 781 l 461 540 l 757 540 l 757 421 l 461 421 l 461 181 l 342 181 l 342 421 l 46 421 l 46 540 l 342 540 l 342 781 z "},"®":{"ha":1111,"x_min":8,"x_max":1103,"o":"m 944 137 q 864 57 944 137 q 556 -22 785 -22 q 167 137 326 -22 q 8 524 8 296 q 167 910 8 751 q 556 1069 326 1069 q 944 910 785 1069 q 1103 524 1103 751 q 944 137 1103 296 m 879 848 q 812 914 879 848 q 556 981 744 981 q 232 848 367 981 q 97 524 97 715 q 232 199 97 332 q 556 67 367 67 q 879 199 744 67 q 1014 524 1014 332 q 879 848 1014 715 m 650 496 l 806 213 l 704 213 l 547 496 l 433 496 l 433 213 l 344 213 l 344 826 l 603 826 q 814 664 814 826 q 767 540 814 581 q 650 496 719 499 m 586 738 l 433 738 l 433 585 l 528 585 q 565 584 538 585 q 604 584 592 583 q 640 586 617 585 q 674 592 663 588 q 700 603 686 596 q 719 624 714 611 q 725 654 725 638 q 715 700 725 682 q 683 726 704 718 q 640 735 661 733 q 586 738 619 738 z "},"š":{"ha":533,"x_min":44,"x_max":497,"o":"m 449 556 l 347 501 q 264 558 319 558 q 217 540 238 558 q 196 494 196 521 q 199 472 196 482 q 213 452 203 461 q 231 436 224 443 q 256 420 239 429 q 283 406 274 411 q 316 392 293 401 q 347 378 339 382 q 457 304 417 346 q 497 193 497 263 q 431 40 497 101 q 274 -22 365 -22 q 137 17 200 -22 q 49 124 74 57 l 156 172 q 274 89 201 89 q 343 115 314 89 q 372 181 372 140 q 326 251 372 221 l 204 317 q 110 385 140 351 q 79 481 79 419 q 135 615 79 560 q 271 669 192 669 q 449 556 393 669 m 44 956 l 125 1019 l 265 886 l 407 1019 l 489 956 l 265 754 l 44 956 z "},"þ":{"ha":772,"x_min":76,"x_max":736,"o":"m 201 1206 l 201 542 l 204 542 q 431 669 289 669 q 651 569 567 669 q 736 329 736 468 q 653 80 736 182 q 425 -22 569 -22 q 301 11 358 -22 q 204 101 243 44 l 201 101 l 201 -372 l 76 -372 l 76 1206 l 201 1206 m 400 89 q 555 157 499 89 q 611 325 611 225 q 554 491 611 424 q 400 558 497 558 q 251 490 307 558 q 194 325 194 421 q 250 158 194 228 q 400 89 306 89 z "},"¾":{"ha":1204,"x_min":56,"x_max":1149,"o":"m 1081 172 l 1149 172 l 1149 92 l 1081 92 l 1081 0 l 992 0 l 992 92 l 654 92 l 1081 657 l 1081 172 m 992 172 l 992 400 l 988 400 l 817 172 l 992 172 m 256 719 l 256 800 q 351 824 315 800 q 386 893 386 847 q 351 964 386 939 q 271 989 317 989 q 197 969 226 989 q 167 911 167 950 l 74 911 q 138 1028 86 988 q 274 1069 189 1069 q 417 1023 358 1069 q 475 900 475 976 q 383 758 475 807 q 485 603 485 714 q 421 465 485 517 q 263 414 357 414 q 120 460 181 414 q 56 583 60 507 l 144 583 q 269 494 158 494 q 358 525 321 494 q 396 606 396 556 q 356 690 396 658 q 256 719 315 722 m 954 1069 l 1025 1033 l 414 -22 l 343 17 l 954 1069 z "},"³":{"ha":481,"x_min":26,"x_max":456,"o":"m 226 719 l 226 800 q 322 824 286 800 q 357 893 357 847 q 322 964 357 939 q 242 989 288 989 q 167 969 197 989 q 138 911 138 950 l 44 911 q 108 1028 57 988 q 244 1069 160 1069 q 388 1023 329 1069 q 446 900 446 976 q 354 758 446 807 q 456 603 456 714 q 392 465 456 517 q 233 414 328 414 q 91 460 151 414 q 26 583 31 507 l 115 583 q 240 494 129 494 q 329 525 292 494 q 367 606 367 556 q 326 690 367 658 q 226 719 286 722 z "},"™":{"ha":1306,"x_min":47,"x_max":1258,"o":"m 1258 1047 l 1258 463 l 1169 463 l 1169 958 l 1167 958 l 967 463 l 913 463 l 718 958 l 715 958 l 715 463 l 626 463 l 626 1047 l 772 1047 l 940 635 l 1114 1047 l 1258 1047 m 519 1047 l 519 958 l 328 958 l 328 463 l 239 463 l 239 958 l 47 958 l 47 1047 l 519 1047 z "},"²":{"ha":481,"x_min":21,"x_max":461,"o":"m 200 500 l 461 500 l 461 419 l 21 419 l 319 757 q 372 869 372 818 q 332 948 372 915 q 246 981 292 981 q 160 951 194 981 q 124 875 126 922 l 31 875 q 97 1010 40 960 q 246 1061 154 1061 q 397 1007 333 1061 q 461 872 461 953 q 415 743 461 796 l 200 500 z "},"ú":{"ha":711,"x_min":81,"x_max":631,"o":"m 81 650 l 206 650 l 206 290 q 238 147 206 200 q 356 94 271 94 q 473 147 440 94 q 506 290 506 200 l 506 650 l 631 650 l 631 276 q 563 58 631 138 q 356 -22 494 -22 q 149 58 217 -22 q 81 276 81 138 l 81 650 m 385 1019 l 500 958 l 272 751 l 211 789 l 385 1019 z "},"û":{"ha":711,"x_min":81,"x_max":631,"o":"m 81 650 l 206 650 l 206 290 q 238 147 206 200 q 356 94 271 94 q 473 147 440 94 q 506 290 506 200 l 506 650 l 631 650 l 631 276 q 563 58 631 138 q 356 -22 494 -22 q 149 58 217 -22 q 81 276 81 138 l 81 650 m 133 818 l 354 1019 l 578 818 l 496 754 l 354 888 l 214 754 l 133 818 z "},"ü":{"ha":711,"x_min":81,"x_max":631,"o":"m 81 650 l 206 650 l 206 290 q 238 147 206 200 q 356 94 271 94 q 473 147 440 94 q 506 290 506 200 l 506 650 l 631 650 l 631 276 q 563 58 631 138 q 356 -22 494 -22 q 149 58 217 -22 q 81 276 81 138 l 81 650 m 150 940 q 163 952 150 940 q 210 964 175 964 q 269 940 244 964 q 293 881 293 915 q 269 821 293 846 q 210 796 244 796 q 150 820 175 796 q 125 881 125 844 q 150 940 125 915 m 443 940 q 456 952 443 940 q 503 964 468 964 q 562 940 538 964 q 586 881 586 915 q 562 821 586 846 q 503 796 538 796 q 442 820 467 796 q 418 881 418 844 q 443 940 418 915 z "},"ù":{"ha":711,"x_min":81,"x_max":631,"o":"m 81 650 l 206 650 l 206 290 q 238 147 206 200 q 356 94 271 94 q 473 147 440 94 q 506 290 506 200 l 506 650 l 631 650 l 631 276 q 563 58 631 138 q 356 -22 494 -22 q 149 58 217 -22 q 81 276 81 138 l 81 650 m 211 958 l 326 1019 l 500 789 l 439 751 l 211 958 z "},"ý":{"ha":672,"x_min":-18,"x_max":692,"o":"m 279 111 l -18 650 l 128 650 l 347 238 l 551 650 l 692 650 l 165 -372 l 24 -372 l 279 111 m 365 1019 l 481 958 l 253 751 l 192 789 l 365 1019 z "},"ÿ":{"ha":672,"x_min":-18,"x_max":692,"o":"m 279 111 l -18 650 l 128 650 l 347 238 l 551 650 l 692 650 l 165 -372 l 24 -372 l 279 111 m 131 940 q 143 952 131 940 q 190 964 156 964 q 249 940 225 964 q 274 881 274 915 q 249 821 274 846 q 190 796 225 796 q 131 820 156 796 q 106 881 106 844 q 131 940 106 915 m 424 940 q 436 952 424 940 q 483 964 449 964 q 542 940 518 964 q 567 881 567 915 q 542 821 567 846 q 483 796 518 796 q 423 820 447 796 q 399 881 399 844 q 424 940 399 915 z "},"ž":{"ha":688,"x_min":3,"x_max":686,"o":"m 246 117 l 668 117 l 668 0 l 3 0 l 443 533 l 78 533 l 78 650 l 686 650 l 246 117 m 122 956 l 203 1019 l 343 886 l 485 1019 l 567 956 l 343 754 l 122 956 z "},"€":{"ha":803,"x_min":0,"x_max":818,"o":"m 818 1013 l 789 894 q 569 950 697 950 q 342 861 422 950 q 238 639 261 772 l 733 639 l 714 558 l 226 558 q 225 522 225 536 q 231 456 225 490 l 679 456 l 660 375 l 244 375 q 351 177 271 257 q 567 97 431 97 q 682 112 633 97 q 789 167 731 126 l 789 26 q 571 -22 700 -22 q 264 80 389 -22 q 107 375 139 182 l 0 375 l 19 456 l 97 456 q 94 518 94 506 q 96 558 94 536 l 1 558 l 21 639 l 104 639 q 269 959 139 849 q 582 1069 399 1069 q 705 1055 638 1069 q 818 1013 772 1040 z "}," ":{"ha":401,"x_min":0,"x_max":0,"o":""},"-":{"ha":461,"x_min":79,"x_max":383,"o":"m 79 497 l 383 497 l 383 393 l 79 393 l 79 497 z "}}}
